# Blender 5.1.0
# www.blender.org
mtllib modelo_cartel_baño.mtl
o modelo_cartel_azul
v 0.167154 0.000055 -0.095225
v 0.167154 0.000190 -0.095255
v 0.167214 0.000190 -0.095225
v 0.167214 0.003196 -0.095225
v 0.167154 0.003196 -0.095255
v 0.167154 0.003332 -0.095225
v -0.167259 0.000055 -0.095225
v -0.167319 0.000190 -0.095225
v 0.167097 0.003386 0.095205
v 0.167097 0.003068 0.095275
v 0.167238 0.003068 0.095205
v 0.167238 0.000318 0.095205
v 0.167097 0.000318 0.095275
v 0.167097 -0.000000 0.095205
v -0.167343 0.003068 0.095205
v -0.167202 0.003068 0.095275
v -0.167202 0.003386 0.095205
v -0.167202 -0.000000 0.095205
v -0.167202 0.000318 0.095275
v -0.167343 0.000318 0.095205
v -0.167202 0.003068 -0.095267
v -0.167343 0.003068 -0.095196
v -0.167202 0.003386 -0.095196
v -0.167202 0.000000 -0.095196
v -0.167343 0.000318 -0.095196
v -0.167202 0.000318 -0.095267
v 0.167238 0.003068 -0.095196
v 0.167097 0.003068 -0.095267
v 0.167097 0.003386 -0.095196
v 0.167097 0.000000 -0.095196
v 0.167097 0.000318 -0.095267
v 0.167238 0.000318 -0.095196
v 0.167220 0.003068 0.095239
v 0.167166 0.003068 0.095266
v 0.167097 0.003224 0.095266
v 0.167097 0.003346 0.095239
v 0.167166 0.003346 0.095205
v 0.167220 0.003224 0.095205
v 0.167097 0.000041 0.095239
v 0.167097 0.000163 0.095266
v 0.167166 0.000318 0.095266
v 0.167220 0.000318 0.095239
v 0.167220 0.000163 0.095205
v 0.167166 0.000041 0.095205
v -0.167202 0.003346 0.095239
v -0.167202 0.003224 0.095266
v -0.167271 0.003068 0.095266
v -0.167325 0.003068 0.095239
v -0.167325 0.003224 0.095205
v -0.167271 0.003346 0.095205
v -0.167325 0.000318 0.095239
v -0.167271 0.000318 0.095266
v -0.167202 0.000163 0.095266
v -0.167202 0.000041 0.095239
v -0.167271 0.000041 0.095205
v -0.167325 0.000163 0.095205
v -0.167271 0.003346 -0.095196
v -0.167325 0.003224 -0.095196
v -0.167325 0.003068 -0.095231
v -0.167271 0.003068 -0.095258
v -0.167202 0.003224 -0.095258
v -0.167202 0.003346 -0.095231
v -0.167271 0.000318 -0.095258
v -0.167325 0.000318 -0.095231
v -0.167325 0.000163 -0.095196
v -0.167271 0.000041 -0.095196
v -0.167202 0.000041 -0.095231
v -0.167202 0.000163 -0.095258
v 0.167097 0.003346 -0.095231
v 0.167097 0.003224 -0.095258
v 0.167166 0.003068 -0.095258
v 0.167220 0.003068 -0.095231
v 0.167220 0.003224 -0.095196
v 0.167166 0.003346 -0.095196
v 0.167220 0.000318 -0.095231
v 0.167166 0.000318 -0.095258
v 0.167097 0.000163 -0.095258
v 0.167097 0.000041 -0.095231
v 0.167166 0.000041 -0.095196
v 0.167220 0.000163 -0.095196
v 0.167214 0.003196 0.095233
v 0.167154 0.003196 0.095263
v 0.167154 0.003332 0.095233
v 0.167154 0.000055 0.095233
v 0.167154 0.000190 0.095263
v 0.167214 0.000190 0.095233
v -0.167259 0.003332 0.095233
v -0.167259 0.003196 0.095263
v -0.167319 0.003196 0.095233
v -0.167319 0.000190 0.095233
v -0.167259 0.000190 0.095263
v -0.167259 0.000055 0.095233
v -0.167259 0.003332 -0.095225
v -0.167319 0.003196 -0.095225
v -0.167259 0.003196 -0.095255
v -0.167259 0.000190 -0.095255
v -0.167202 0.000525 -0.095267
v -0.167271 0.000525 -0.095258
v -0.167325 0.000525 -0.095231
v -0.167343 0.000525 -0.095196
v -0.167343 0.000525 0.095205
v -0.167325 0.000525 0.095239
v -0.167271 0.000525 0.095266
v -0.167202 0.000525 0.095275
v 0.167097 0.000525 0.095275
v 0.167166 0.000525 0.095266
v 0.167220 0.000525 0.095239
v 0.167238 0.000525 0.095205
v 0.167238 0.000525 -0.095196
v 0.167220 0.000525 -0.095231
v 0.167166 0.000525 -0.095258
v 0.167097 0.000525 -0.095267
v -0.167202 0.002834 -0.095267
v -0.167271 0.002834 -0.095258
v -0.167325 0.002834 -0.095231
v -0.167343 0.002834 -0.095196
v -0.167343 0.002834 0.095205
v -0.167325 0.002834 0.095239
v -0.167271 0.002834 0.095266
v -0.167202 0.002834 0.095275
v 0.167097 0.002834 0.095275
v 0.167166 0.002834 0.095266
v 0.167220 0.002834 0.095239
v 0.167238 0.002834 0.095205
v 0.167238 0.002834 -0.095196
v 0.167220 0.002834 -0.095231
v 0.167166 0.002834 -0.095258
v 0.167097 0.002834 -0.095267
v 0.166990 0.002834 -0.095267
v 0.166990 0.003068 -0.095267
v 0.166990 0.003224 -0.095258
v 0.166990 0.003346 -0.095231
v 0.166990 0.003386 -0.095196
v 0.166990 0.003386 0.095205
v 0.166990 0.003346 0.095239
v 0.166990 0.003224 0.095266
v 0.166990 0.003068 0.095275
v 0.166990 0.002834 0.095275
v 0.166990 0.000525 0.095275
v 0.166990 0.000318 0.095275
v 0.166990 0.000163 0.095266
v 0.166990 0.000041 0.095239
v 0.166990 -0.000000 0.095205
v 0.166990 0.000000 -0.095196
v 0.166990 0.000041 -0.095231
v 0.166990 0.000163 -0.095258
v 0.166990 0.000318 -0.095267
v 0.166990 0.000525 -0.095267
v -0.166990 0.002834 -0.095267
v -0.166990 0.003068 -0.095267
v -0.166990 0.003224 -0.095258
v -0.166990 0.003346 -0.095231
v -0.166990 0.003386 -0.095196
v -0.166990 0.003386 0.095205
v -0.166990 0.003346 0.095239
v -0.166990 0.003224 0.095266
v -0.166990 0.003068 0.095275
v -0.166990 0.002834 0.095275
v -0.166990 0.000525 0.095275
v -0.166990 0.000318 0.095275
v -0.166990 0.000163 0.095266
v -0.166990 0.000041 0.095239
v -0.166990 -0.000000 0.095205
v -0.166990 0.000000 -0.095196
v -0.166990 0.000041 -0.095231
v -0.166990 0.000163 -0.095258
v -0.166990 0.000318 -0.095267
v -0.166990 0.000525 -0.095267
v -0.167202 -0.000000 0.095167
v -0.166990 -0.000000 0.095167
v 0.166990 -0.000000 0.095167
v 0.167097 -0.000000 0.095167
v 0.167166 0.000041 0.095167
v 0.167220 0.000163 0.095167
v 0.167238 0.000318 0.095167
v 0.167238 0.000525 0.095167
v 0.167238 0.002834 0.095167
v 0.167238 0.003068 0.095167
v 0.167220 0.003224 0.095167
v 0.167166 0.003346 0.095167
v 0.167097 0.003386 0.095167
v 0.166990 0.003386 0.095167
v -0.166990 0.003386 0.095167
v -0.167202 0.003386 0.095167
v -0.167271 0.003346 0.095167
v -0.167325 0.003224 0.095167
v -0.167343 0.003068 0.095167
v -0.167343 0.002834 0.095167
v -0.167343 0.000525 0.095167
v -0.167343 0.000318 0.095167
v -0.167325 0.000163 0.095167
v -0.167271 0.000041 0.095167
v -0.167202 0.000000 -0.095167
v -0.167271 0.000041 -0.095167
v -0.167325 0.000163 -0.095167
v -0.167343 0.000318 -0.095167
v -0.167343 0.000525 -0.095167
v -0.167343 0.002834 -0.095167
v -0.167343 0.003068 -0.095167
v -0.167325 0.003224 -0.095167
v -0.167271 0.003346 -0.095167
v -0.167202 0.003386 -0.095167
v -0.166990 0.003386 -0.095167
v 0.166990 0.003386 -0.095167
v 0.167097 0.003386 -0.095167
v 0.167166 0.003346 -0.095167
v 0.167220 0.003224 -0.095167
v 0.167238 0.003068 -0.095167
v 0.167238 0.002834 -0.095167
v 0.167238 0.000525 -0.095167
v 0.167238 0.000318 -0.095167
v 0.167220 0.000163 -0.095167
v 0.167166 0.000041 -0.095167
v 0.167097 0.000000 -0.095167
v 0.166990 0.000000 -0.095167
v -0.166990 0.000000 -0.095167
vn -0.0000 -0.0000 1.0000
vn 0.0622 0.0245 0.9978
vn -0.0000 0.0288 0.9996
vn -1.0000 -0.0000 -0.0000
vn -0.9691 0.0475 0.2419
vn -0.9984 0.0574 -0.0000
vn -0.0000 -0.0000 -1.0000
vn -0.0622 0.0245 -0.9978
vn -0.0000 0.0288 -0.9996
vn 1.0000 -0.0000 -0.0000
vn 0.9690 0.0475 -0.2424
vn 0.9984 0.0574 -0.0000
vn -0.0000 -1.0000 -0.0000
vn 0.2114 -0.8814 0.4225
vn -0.0000 -0.9075 0.4201
vn -0.0000 1.0000 -0.0000
vn 0.2114 0.8814 -0.4224
vn -0.0000 0.9076 -0.4199
vn 0.4387 0.1946 0.8773
vn 0.4385 -0.1949 0.8773
vn -0.4385 0.1945 0.8774
vn -0.4385 -0.1949 0.8773
vn -0.4385 0.1946 -0.8774
vn -0.4385 -0.1949 -0.8773
vn 0.4387 0.1944 -0.8773
vn 0.4385 -0.1949 -0.8773
vn 0.8862 -0.0000 0.4634
vn 0.9690 0.0475 0.2424
vn 0.8856 0.0322 0.4632
vn -0.0000 -0.6474 0.7622
vn 0.1512 -0.6830 0.7146
vn -0.8864 -0.0000 0.4630
vn -0.9691 -0.0475 0.2422
vn -0.8860 -0.0325 0.4625
vn -0.0000 0.6476 0.7620
vn -0.2112 0.8816 0.4221
vn -0.1512 0.6829 0.7147
vn -0.5074 -0.8617 -0.0000
vn -0.2111 -0.8815 0.4225
vn -0.4316 -0.8248 0.3653
vn -0.1296 -0.0000 -0.9916
vn -0.0622 -0.0246 -0.9978
vn -0.1295 -0.0181 -0.9914
vn -0.5073 0.8618 -0.0000
vn -0.2111 0.8815 -0.4223
vn -0.4316 0.8248 -0.3653
vn -0.0000 -0.6473 -0.7622
vn -0.2112 -0.8816 -0.4221
vn -0.1512 -0.6828 -0.7148
vn 0.8862 -0.0000 -0.4633
vn 0.9690 -0.0476 -0.2425
vn 0.8855 -0.0323 -0.4635
vn -0.0000 0.6473 -0.7622
vn 0.1512 0.6828 -0.7148
vn 0.5074 -0.8617 -0.0000
vn 0.2111 -0.8815 -0.4224
vn 0.4316 -0.8248 -0.3652
vn 0.5073 0.8618 -0.0000
vn 0.2111 0.8814 0.4226
vn 0.4316 0.8248 0.3653
vn 0.4470 0.0325 0.8939
vn 0.4462 0.0644 0.8926
vn 0.4470 0.0328 0.8939
vn 0.0777 0.2159 0.9733
vn 0.1575 0.2139 0.9641
vn 0.0775 0.2159 0.9733
vn 0.7847 0.3482 0.5128
vn 0.8775 0.3892 0.2803
vn 0.8777 0.3894 0.2794
vn 0.9376 0.1043 0.3317
vn 0.0880 0.0554 0.9946
vn 0.0448 0.0562 0.9974
vn 0.1512 0.6829 0.7147
vn 0.2577 0.8172 0.5155
vn 0.1575 -0.2139 0.9641
vn 0.0777 -0.2159 0.9733
vn 0.0775 -0.2159 0.9733
vn 0.4463 -0.0647 0.8926
vn 0.4469 -0.0325 0.8940
vn 0.4469 -0.0326 0.8940
vn 0.8775 -0.3892 0.2801
vn 0.7848 -0.3482 0.5127
vn 0.8776 -0.3895 0.2796
vn 0.4316 -0.8248 0.3653
vn 0.2578 -0.8173 0.5153
vn 0.0624 -0.0245 0.9978
vn 0.0880 -0.0554 0.9946
vn 0.1295 -0.0177 0.9914
vn 0.9690 -0.0475 0.2423
vn 0.9378 -0.1044 0.3311
vn 0.9783 -0.1102 0.1753
vn -0.1575 0.2140 0.9641
vn -0.0777 0.2159 0.9733
vn -0.0776 0.2160 0.9733
vn -0.4461 0.0644 0.8926
vn -0.4468 0.0325 0.8940
vn -0.4468 0.0326 0.8940
vn -0.8775 0.3894 0.2801
vn -0.7849 0.3483 0.5126
vn -0.8776 0.3895 0.2795
vn -0.4316 0.8248 0.3653
vn -0.2578 0.8173 0.5153
vn -0.0624 0.0244 0.9978
vn -0.0880 0.0554 0.9946
vn -0.1296 0.0180 0.9914
vn -0.9375 0.1041 0.3321
vn -0.9783 0.1101 0.1757
vn -0.4462 -0.0646 0.8926
vn -0.4469 -0.0326 0.8940
vn -0.4469 -0.0325 0.8940
vn -0.0777 -0.2159 0.9733
vn -0.1575 -0.2139 0.9641
vn -0.0776 -0.2159 0.9733
vn -0.7850 -0.3484 0.5123
vn -0.8775 -0.3893 0.2802
vn -0.8776 -0.3895 0.2794
vn -0.9374 -0.1041 0.3323
vn -0.0623 -0.0244 0.9978
vn -0.0880 -0.0554 0.9946
vn -0.0448 -0.0562 0.9974
vn -0.1511 -0.6829 0.7147
vn -0.2576 -0.8172 0.5156
vn -0.7844 0.3481 -0.5134
vn -0.8774 0.3895 -0.2800
vn -0.8777 0.3893 -0.2795
vn -0.4467 0.0325 -0.8941
vn -0.4461 0.0647 -0.8926
vn -0.4470 0.0321 -0.8940
vn -0.0777 0.2158 -0.9733
vn -0.1575 0.2140 -0.9641
vn -0.0776 0.2160 -0.9733
vn -0.1511 0.6829 -0.7147
vn -0.2579 0.8172 -0.5155
vn -0.9691 0.0475 -0.2419
vn -0.9374 0.1042 -0.3323
vn -0.8861 0.0322 -0.4623
vn -0.0880 0.0552 -0.9946
vn -0.0448 0.0561 -0.9974
vn -0.4469 -0.0327 -0.8940
vn -0.4460 -0.0647 -0.8927
vn -0.4469 -0.0325 -0.8940
vn -0.8774 -0.3895 -0.2802
vn -0.7850 -0.3483 -0.5123
vn -0.8777 -0.3894 -0.2794
vn -0.1575 -0.2139 -0.9641
vn -0.0777 -0.2158 -0.9733
vn -0.0775 -0.2159 -0.9733
vn -0.0880 -0.0552 -0.9946
vn -0.9692 -0.0475 -0.2418
vn -0.9374 -0.1042 -0.3323
vn -0.9783 -0.1101 -0.1756
vn -0.4316 -0.8247 -0.3655
vn -0.2578 -0.8173 -0.5154
vn 0.1575 0.2140 -0.9641
vn 0.0777 0.2159 -0.9733
vn 0.0775 0.2159 -0.9733
vn 0.4462 0.0647 -0.8926
vn 0.4470 0.0324 -0.8939
vn 0.4469 0.0321 -0.8940
vn 0.8775 0.3892 -0.2802
vn 0.7846 0.3482 -0.5130
vn 0.8777 0.3894 -0.2794
vn 0.4316 0.8247 -0.3655
vn 0.2578 0.8171 -0.5156
vn 0.0624 0.0245 -0.9978
vn 0.0879 0.0553 -0.9946
vn 0.1294 0.0182 -0.9914
vn 0.9380 0.1045 -0.3305
vn 0.9783 0.1102 -0.1753
vn 0.4469 -0.0321 -0.8940
vn 0.4463 -0.0646 -0.8926
vn 0.4472 -0.0321 -0.8939
vn 0.0777 -0.2159 -0.9733
vn 0.1575 -0.2139 -0.9641
vn 0.0775 -0.2159 -0.9733
vn 0.7848 -0.3482 -0.5127
vn 0.8775 -0.3892 -0.2801
vn 0.8777 -0.3893 -0.2795
vn 0.9376 -0.1042 -0.3317
vn 0.0622 -0.0245 -0.9978
vn 0.0880 -0.0552 -0.9946
vn 0.0447 -0.0562 -0.9974
vn 0.1512 -0.6829 -0.7147
vn 0.2579 -0.8172 -0.5155
vn 0.4476 -0.0000 0.8942
vn 0.4472 -0.0000 0.8945
vn 0.0644 -0.0000 0.9979
vn 0.1295 -0.0000 0.9916
vn -0.0000 -0.2166 0.9763
vn -0.0000 -0.2161 0.9764
vn -0.0000 -0.0290 0.9996
vn -0.0000 -0.0580 0.9983
vn -0.4472 -0.0000 0.8944
vn -0.0645 -0.0000 0.9979
vn -0.1293 -0.0000 0.9916
vn -0.0000 0.2166 0.9763
vn -0.0000 0.2161 0.9764
vn -0.0000 0.0576 0.9983
vn -0.9140 -0.4058 -0.0000
vn -0.9141 -0.4054 -0.0000
vn -0.9983 -0.0577 -0.0000
vn -0.9933 -0.1154 -0.0000
vn -0.4471 -0.0000 -0.8945
vn -0.9686 -0.0000 -0.2488
vn -0.8863 -0.0000 -0.4631
vn -0.9140 0.4056 -0.0000
vn -0.9140 0.4058 -0.0000
vn -0.9934 0.1146 -0.0000
vn -0.0000 -0.2166 -0.9763
vn -0.0000 -0.2161 -0.9764
vn -0.0000 -0.0290 -0.9996
vn -0.0000 -0.0580 -0.9983
vn 0.4472 -0.0000 -0.8944
vn 0.0645 -0.0000 -0.9979
vn 0.1294 -0.0000 -0.9916
vn -0.0000 0.2166 -0.9763
vn -0.0000 0.0576 -0.9983
vn 0.9142 -0.4054 -0.0000
vn 0.9141 -0.4055 -0.0000
vn 0.9983 -0.0578 -0.0000
vn 0.9933 -0.1154 -0.0000
vn 0.9141 0.4055 -0.0000
vn 0.9142 0.4053 -0.0000
vn 0.9934 0.1147 -0.0000
vn -0.1293 -0.0000 -0.9916
vn -0.0641 -0.0000 -0.9979
vn -0.4473 -0.0000 -0.8944
vn -0.8864 -0.0326 -0.4618
vn -0.9983 -0.0578 -0.0000
vn -0.9686 -0.0000 0.2487
vn -0.8866 -0.0000 0.4625
vn -0.4472 -0.0000 0.8945
vn -0.1296 -0.0179 0.9914
vn -0.0643 -0.0000 0.9979
vn -0.1294 -0.0000 0.9916
vn 0.1294 -0.0000 0.9916
vn 0.4472 -0.0000 0.8944
vn 0.8857 -0.0322 0.4632
vn 0.9685 -0.0000 0.2490
vn 0.9983 -0.0577 -0.0000
vn 0.9685 -0.0000 -0.2490
vn 0.8863 -0.0000 -0.4631
vn 0.4472 -0.0000 -0.8945
vn 0.1293 -0.0182 -0.9914
vn 0.0642 -0.0000 -0.9979
vn 0.1293 -0.0000 -0.9916
vn -0.1294 0.0181 -0.9914
vn -0.0642 -0.0000 -0.9979
vn -0.9686 -0.0000 0.2485
vn -0.8861 0.0322 0.4623
vn 0.0642 -0.0000 0.9979
vn 0.1294 0.0181 0.9914
vn 0.9685 -0.0000 -0.2489
vn 0.8860 0.0327 -0.4626
vn 0.0447 0.0562 -0.9974
vn -0.0000 0.2161 -0.9764
vn -0.0000 0.9076 0.4197
vn -0.0000 0.6477 0.7619
vn -0.0000 0.2164 0.9763
vn 0.0447 -0.0562 0.9974
vn -0.0000 -0.6473 0.7623
vn -0.0000 -0.9077 -0.4197
vn -0.0000 -0.6474 -0.7622
vn -0.2254 0.9743 -0.0000
vn -0.0000 0.9076 0.4198
vn -0.0448 0.0562 0.9974
vn -0.0000 -0.9075 0.4200
vn -0.2254 -0.9743 -0.0000
vn -0.0000 -0.9076 -0.4198
vn -0.0000 -0.2164 -0.9763
vn -0.0448 -0.0561 -0.9974
vn 0.2254 -0.9743 -0.0000
vn 0.5073 -0.8617 -0.0000
vn 0.9983 0.0578 -0.0000
vn 0.9783 0.1102 0.1753
vn 0.9933 0.1152 -0.0000
vn 0.9142 0.4052 -0.0000
vn 0.5074 0.8617 -0.0000
vn 0.2254 0.9743 -0.0000
vn -0.9142 0.4052 -0.0000
vn -0.9934 0.1151 -0.0000
vn -0.9983 0.0577 -0.0000
vn -0.9783 -0.1101 0.1757
vn -0.9934 -0.1150 -0.0000
vn -0.9141 -0.4055 -0.0000
vn -0.9140 -0.4057 -0.0000
vn -0.9783 0.1101 -0.1756
vn -0.9140 0.4057 -0.0000
vn 0.9783 -0.1102 -0.1753
vn 0.9142 -0.4053 -0.0000
vn 0.4461 0.0646 0.8926
vn 0.7847 0.3480 0.5129
vn 0.1574 -0.2138 0.9641
vn 0.4463 -0.0646 0.8925
vn 0.7850 -0.3481 0.5124
vn -0.1574 0.2138 0.9641
vn -0.4461 0.0646 0.8926
vn -0.7849 0.3484 0.5123
vn -0.1574 -0.2138 0.9641
vn -0.7850 -0.3484 0.5122
vn -0.7846 0.3484 -0.5129
vn -0.1574 0.2138 -0.9641
vn -0.4459 -0.0647 -0.8927
vn -0.7846 -0.3483 -0.5129
vn -0.1574 -0.2138 -0.9641
vn 0.1575 0.2139 -0.9641
vn 0.4461 0.0647 -0.8926
vn 0.7847 0.3481 -0.5129
vn 0.4463 -0.0646 -0.8925
vn 0.1574 -0.2138 -0.9641
vn 0.7850 -0.3482 -0.5124
vt 0.000001 1.003226
vt -0.000321 1.001979
vt 0.000001 1.001979
vt 1.003981 1.000001
vt 1.002596 1.000189
vt 1.002600 0.999992
vt 0.999999 -0.003181
vt 1.000636 -0.001934
vt 0.999999 -0.001934
vt -0.003670 -0.000002
vt -0.002286 -0.000146
vt -0.002289 0.000007
vt 1.183452 0.013671
vt 1.183228 0.013514
vt 1.183452 0.013514
vt 0.000000 0.000000
vt -0.000322 -0.000154
vt 0.000000 -0.000154
vt -0.000721 1.000339
vt -0.001504 1.000549
vt -0.001530 1.000330
vt -0.034141 1.000325
vt -0.034166 1.000544
vt -0.034950 1.000333
vt 1.001841 1.000329
vt 1.001815 1.000548
vt 1.001032 1.000337
vt 1.035261 1.000338
vt 1.034477 1.000548
vt 1.034452 1.000329
vt 1.001813 -0.000505
vt 1.001839 -0.000286
vt 1.001029 -0.000294
vt 1.035264 -0.000294
vt 1.034453 -0.000287
vt 1.034479 -0.000505
vt -0.001529 -0.000286
vt -0.001503 -0.000504
vt -0.000718 -0.000293
vt -0.034954 -0.000291
vt -0.034169 -0.000502
vt -0.034143 -0.000283
vt -0.003669 1.000388
vt -0.002285 1.000190
vt -0.002279 1.000378
vt 1.183452 0.013290
vt 1.183228 0.013290
vt 1.032475 1.000384
vt 1.033697 1.000189
vt 1.033702 1.000377
vt 1.000000 1.000483
vt 1.000637 1.000199
vt 1.000637 1.000483
vt 1.035351 0.999993
vt 1.035647 1.000216
vt 1.035338 1.000187
vt 1.032477 -0.000544
vt 1.033725 -0.000725
vt 1.033713 -0.000536
vt 1.000942 0.000007
vt 1.000643 -0.000169
vt 1.000951 -0.000143
vt 1.882275 0.810532
vt 1.882720 0.810309
vt 1.882720 0.810532
vt -0.032166 -0.000339
vt -0.033386 -0.000143
vt -0.033393 -0.000331
vt 0.000000 -0.000438
vt -0.000322 -0.000438
vt -0.035040 0.000010
vt -0.035339 -0.000166
vt -0.035031 -0.000140
vt -0.000631 0.999994
vt -0.000335 1.000217
vt -0.000644 1.000188
vt -0.002270 1.000580
vt -0.001310 1.000671
vt -0.000578 1.000450
vt -0.001371 1.000180
vt -0.002258 1.000768
vt -0.034361 1.000666
vt -0.035093 1.000445
vt -0.033391 1.000373
vt -0.033401 1.000573
vt -0.034300 1.000175
vt -0.035028 1.000183
vt -0.033413 1.000761
vt -0.033385 1.000185
vt 1.001620 1.000670
vt 1.000889 1.000449
vt 1.002590 1.000377
vt 1.002580 1.000579
vt 1.001682 1.000178
vt 1.000954 1.000187
vt 1.002568 1.000766
vt 1.033712 1.000578
vt 1.034671 1.000671
vt 1.035404 1.000449
vt 1.034611 1.000179
vt 1.033724 1.000766
vt 1.001680 -0.000136
vt 1.002589 -0.000334
vt 1.002579 -0.000535
vt 1.001618 -0.000628
vt 1.000885 -0.000405
vt 1.002596 -0.000146
vt 1.002567 -0.000723
vt 1.033703 -0.000335
vt 1.034612 -0.000136
vt 1.035342 -0.000144
vt 1.034674 -0.000627
vt 1.035408 -0.000405
vt 1.033697 -0.000147
vt -0.001308 -0.000626
vt -0.000575 -0.000404
vt -0.002280 -0.000333
vt -0.002269 -0.000535
vt -0.001370 -0.000135
vt -0.000640 -0.000143
vt -0.002257 -0.000723
vt -0.033403 -0.000532
vt -0.034364 -0.000624
vt -0.035098 -0.000401
vt -0.034302 -0.000133
vt -0.033415 -0.000720
vt -0.032164 1.000580
vt -0.032164 1.000379
vt -0.032165 1.000767
vt 1.882275 0.012767
vt 1.882720 0.013290
vt 1.882275 0.013290
vt 1.882275 0.012115
vt 1.882720 0.012767
vt 1.003979 1.000587
vt 1.003979 1.000386
vt 1.003978 1.000774
vt 0.000001 1.001149
vt -0.000321 1.000484
vt 0.000001 1.000484
vt -0.000321 1.001149
vt 1.034613 0.000012
vt 1.035351 0.000007
vt 1.033693 0.000006
vt 1.003978 -0.000343
vt 1.003976 -0.000544
vt 1.003979 -0.000156
vt 1.001680 0.999987
vt 1.000942 0.999993
vt 1.183453 0.811055
vt 1.183228 0.810533
vt 1.183453 0.810533
vt 1.183453 0.811707
vt 1.183228 0.811055
vt -0.003667 -0.000544
vt -0.003668 -0.000342
vt -0.003666 -0.000731
vt 0.999999 -0.001104
vt 1.000636 -0.000439
vt 0.999999 -0.000439
vt 1.000636 -0.001104
vt -0.034302 0.999983
vt -0.035039 0.999989
vt -0.033382 0.999988
vt -0.001369 0.000013
vt -0.000632 0.000008
vt 1.032479 -0.000731
vt 1.032476 -0.000342
vt 1.032475 -0.000155
vt 1.033693 0.999992
vt 1.032475 1.000197
vt 1.032474 1.000000
vt 1.032476 1.000585
vt 1.032477 1.000773
vt 1.183452 0.012116
vt 1.183228 0.011252
vt 1.183452 0.011252
vt -0.003668 1.000590
vt -0.032163 1.000193
vt -0.033383 0.000009
vt -0.032165 -0.000151
vt -0.032164 0.000001
vt -0.032168 -0.000540
vt -0.032169 -0.000727
vt 1.882275 0.811707
vt 1.882720 0.812571
vt 1.882275 0.812571
vt 1.003975 -0.000731
vt 1.003980 1.000198
vt 0.000005 1.028940
vt -0.000322 1.003224
vt -0.003668 1.000778
vt -0.003669 1.000200
vt -0.003669 -0.000155
vt 0.999999 -0.028894
vt 1.000636 -0.003181
vt -0.000322 -0.001934
vt 0.000000 -0.003180
vt 0.000000 -0.001934
vt -0.000322 -0.001103
vt 0.000000 -0.001103
vt 1.000000 0.999999
vt 0.000001 1.000200
vt 0.000001 1.000000
vt 1.000000 1.001148
vt 1.000000 1.001978
vt 1.000000 1.003224
vt 1.882275 0.011251
vt 1.183228 0.012768
vt 1.183452 0.012768
vt 1.882275 0.810188
vt 1.183453 0.810310
vt 1.183453 0.810188
vt 1.882275 0.811055
vt 1.183228 0.812572
vt 1.183453 0.812572
vt -0.000322 -0.003180
vt 0.000000 -0.028893
vt 0.999999 -0.000154
vt 1.000637 0.999999
vt 1.000000 1.000199
vt 1.000637 1.001148
vt 1.000637 1.001978
vt 1.000637 1.003223
vt 1.000000 1.028939
vt 1.882720 0.011251
vt 1.882275 0.013513
vt 1.882720 0.810188
vt 1.882275 0.810309
vt 1.882720 0.811055
vt 1.882720 0.013670
vt 1.882275 0.013670
vt 1.183228 0.013671
vt -0.035354 0.999995
vt -0.034303 0.000015
vt -0.032162 0.999996
vt -0.003669 1.000002
vt -0.002289 0.999993
vt -0.001369 0.999988
vt -0.000317 1.000000
vt -0.000321 1.000000
vt 0.999999 0.000000
vt 1.000628 0.999999
vt 1.001679 0.000012
vt 1.002599 0.000006
vt 1.003980 -0.000003
vt 1.032474 -0.000002
vt 1.034613 0.999987
vt 1.035665 0.999999
vt 1.035665 -0.000000
vt 1.000627 0.000000
vt 1.000636 0.000000
vt -0.000317 0.000000
vt -0.035355 0.000003
vt 1.183228 0.810188
vt -0.000322 0.000000
vt -0.035331 1.000213
vt 1.000651 1.000217
vt 1.035646 -0.000170
vt -0.000337 -0.000170
vt 1.882720 0.012115
vt 1.183228 0.811707
vt 1.183228 0.012116
vt 1.882720 0.811707
vt -0.000316 1.028941
vt 1.000636 -0.028894
vt -0.000321 1.000200
vt 1.183228 0.810310
vt -0.000322 -0.028893
vt 1.000636 -0.000154
vt 1.000636 1.028940
vt 1.882720 0.013513
s 1
usemtl Material.003
f 138/1/1 10/2/2 137/3/3
f 188/4/4 15/5/5 187/6/6
f 149/7/7 21/8/8 150/9/9
f 209/10/10 27/11/11 208/12/12
f 171/13/13 14/14/14 143/15/15
f 204/16/16 29/17/17 133/18/18
f 83/19/19 82/20/19 81/21/19
f 86/22/20 85/23/20 84/24/20
f 89/25/21 88/26/21 87/27/21
f 92/28/22 91/29/22 90/30/22
f 95/31/23 94/32/23 93/33/23
f 7/34/24 8/35/24 96/36/24
f 4/37/25 5/38/25 6/39/25
f 1/40/26 2/41/26 3/42/26
f 123/43/27 11/44/28 33/45/29
f 142/46/30 14/14/14 39/47/31
f 102/48/32 20/49/33 51/50/34
f 155/51/35 17/52/36 45/53/37
f 192/54/38 18/55/39 55/56/40
f 98/57/41 26/58/42 63/59/43
f 201/60/44 23/61/45 57/62/46
f 165/63/47 24/64/48 67/65/49
f 110/66/50 32/67/51 75/68/52
f 132/69/53 29/17/17 69/70/54
f 213/71/55 30/72/56 79/73/57
f 180/74/58 9/75/59 37/76/60
f 33/45/61 82/20/62 34/77/63
f 35/78/64 83/19/65 36/79/66
f 83/19/67 38/80/68 37/76/69
f 11/44/28 81/21/70 33/45/29
f 10/81/2 82/20/71 35/78/72
f 37/76/60 36/79/73 83/19/74
f 84/24/75 40/82/76 39/83/77
f 85/23/78 42/84/79 41/85/80
f 43/86/81 84/24/82 44/87/83
f 39/83/31 44/87/84 84/24/85
f 13/88/86 85/23/87 41/85/88
f 12/89/89 86/22/90 43/86/91
f 87/27/92 46/90/93 45/91/94
f 88/26/95 48/92/96 47/93/97
f 49/94/98 87/27/99 50/95/100
f 45/91/37 50/95/101 87/27/102
f 16/96/103 88/26/104 47/93/105
f 15/5/5 89/25/106 49/94/107
f 90/30/108 52/97/109 51/50/110
f 53/98/111 92/28/112 54/99/113
f 92/28/114 56/100/115 55/56/116
f 20/49/33 90/30/117 51/50/34
f 19/101/118 91/29/119 53/98/120
f 55/56/40 54/99/121 92/28/122
f 93/33/123 58/102/124 57/62/125
f 59/103/126 95/31/127 60/104/128
f 61/105/129 93/33/130 62/106/131
f 57/62/46 62/106/132 93/33/133
f 22/107/134 94/32/135 59/103/136
f 21/108/8 95/31/137 61/105/138
f 63/59/139 8/35/140 64/109/141
f 65/110/142 7/34/143 66/111/144
f 7/34/145 68/112/146 67/113/147
f 26/58/42 96/36/148 63/59/43
f 25/114/149 8/35/150 65/110/151
f 67/113/49 66/111/152 7/34/153
f 6/39/154 70/115/155 69/116/156
f 5/38/157 72/117/158 71/118/159
f 73/119/160 6/39/161 74/120/162
f 69/116/54 74/120/163 6/39/164
f 28/121/165 5/38/166 71/118/167
f 27/11/11 4/37/168 73/119/169
f 75/68/170 2/41/171 76/122/172
f 77/123/173 1/40/174 78/124/175
f 1/40/176 80/125/177 79/73/178
f 32/67/51 3/42/179 75/68/52
f 31/126/180 2/41/181 77/123/182
f 79/73/57 78/124/183 1/40/184
f 106/127/185 42/84/79 107/128/186
f 105/129/187 41/85/88 106/127/188
f 161/130/189 54/131/113 162/132/190
f 160/133/191 53/134/120 161/130/192
f 119/135/193 48/92/96 118/136/193
f 120/137/194 47/93/105 119/135/195
f 136/138/196 36/139/66 135/140/197
f 137/3/3 35/141/72 136/138/198
f 195/142/199 66/111/144 194/143/200
f 196/144/201 65/110/151 195/142/202
f 115/145/203 60/104/128 114/146/203
f 116/147/204 59/103/136 115/145/205
f 186/148/206 50/95/100 185/149/207
f 187/6/6 49/94/107 186/148/208
f 146/150/209 78/151/175 145/152/210
f 147/153/211 77/154/182 146/150/212
f 127/155/213 72/117/158 126/156/213
f 128/157/214 71/118/167 127/155/215
f 151/158/216 62/159/131 152/160/216
f 150/9/9 61/161/138 151/158/217
f 174/162/218 44/87/83 173/163/219
f 175/164/220 43/86/91 174/162/221
f 207/165/222 74/120/162 206/166/223
f 208/12/12 73/119/169 207/165/224
f 114/146/225 97/167/226 98/57/41
f 63/59/139 99/168/227 98/57/227
f 64/109/228 100/169/204 99/168/205
f 190/170/229 101/171/230 189/172/4
f 118/136/231 101/171/230 102/48/32
f 51/50/110 103/173/232 102/48/232
f 52/97/233 104/174/234 103/173/235
f 140/175/191 105/176/187 139/177/1
f 122/178/236 105/129/187 106/127/188
f 123/43/237 106/127/185 107/128/186
f 42/84/238 108/179/239 107/128/27
f 211/180/240 109/181/241 210/182/10
f 126/156/242 109/181/241 110/66/50
f 75/68/170 111/183/213 110/66/243
f 76/122/244 112/184/245 111/183/246
f 167/185/211 97/186/226 168/187/7
f 60/104/247 113/188/248 114/146/225
f 98/57/227 115/145/203 114/146/203
f 99/168/205 116/147/204 115/145/205
f 189/172/4 117/189/249 188/4/4
f 48/92/250 117/189/249 118/136/231
f 102/48/232 119/135/193 118/136/193
f 103/173/235 120/137/194 119/135/195
f 139/190/1 121/191/251 138/1/1
f 34/77/252 121/192/251 122/178/236
f 33/45/61 122/178/237 123/43/237
f 107/128/27 124/193/239 123/43/27
f 210/182/10 125/194/253 209/10/10
f 72/117/254 125/194/253 126/156/242
f 110/66/243 127/155/213 126/156/213
f 111/183/246 128/157/214 127/155/215
f 168/195/7 113/196/248 149/7/7
f 28/197/165 129/198/7 130/199/9
f 70/200/255 130/199/9 131/201/217
f 69/70/156 131/201/216 132/69/256
f 152/160/53 133/18/18 132/69/53
f 183/202/16 134/203/257 182/204/16
f 36/139/73 134/203/257 135/140/258
f 155/51/259 136/138/196 135/140/197
f 156/205/198 137/3/3 136/138/198
f 157/206/3 138/1/1 137/3/3
f 158/207/1 139/190/1 138/1/1
f 159/208/1 140/175/191 139/177/1
f 40/209/260 140/175/191 141/210/192
f 39/47/77 141/210/189 142/46/190
f 162/132/261 143/15/15 142/46/30
f 216/211/13 144/212/262 215/213/13
f 78/151/183 144/212/262 145/152/263
f 165/63/210 146/150/209 145/152/210
f 166/214/212 147/153/211 146/150/212
f 112/215/245 147/153/211 148/216/7
f 128/217/214 148/218/7 129/198/7
f 130/199/9 149/7/7 150/9/9
f 131/201/217 150/9/9 151/158/217
f 132/69/256 151/158/216 152/160/216
f 62/159/132 153/219/18 152/160/53
f 184/220/264 154/221/265 183/202/16
f 135/140/258 154/221/265 155/51/35
f 45/53/94 156/205/196 155/51/259
f 46/222/266 157/206/3 156/205/198
f 16/223/103 158/207/1 157/206/3
f 120/224/194 159/225/1 158/207/1
f 104/226/234 160/133/191 159/208/1
f 141/210/192 160/133/191 161/130/192
f 142/46/190 161/130/189 162/132/190
f 54/131/121 163/227/267 162/132/261
f 193/228/268 164/229/269 216/211/13
f 145/152/263 164/229/269 165/63/47
f 67/65/147 166/214/270 165/63/210
f 68/230/271 167/185/211 166/214/212
f 148/216/7 167/185/211 168/187/7
f 129/198/7 168/195/7 149/7/7
f 163/227/267 169/231/268 170/232/13
f 143/15/15 170/232/13 171/13/13
f 215/213/13 172/233/272 171/13/13
f 44/87/84 172/234/272 173/163/273
f 213/71/219 174/162/218 173/163/219
f 212/235/221 175/164/220 174/162/221
f 108/179/239 175/164/220 176/236/10
f 124/193/239 176/236/10 177/237/10
f 11/44/28 177/237/10 178/238/274
f 38/80/275 178/238/274 179/239/276
f 37/76/69 179/239/277 180/74/223
f 206/166/278 181/240/279 180/74/58
f 134/203/257 181/241/279 182/204/16
f 204/16/16 183/202/16 182/204/16
f 203/242/16 184/243/264 183/202/16
f 50/95/101 184/243/264 185/149/44
f 201/60/280 186/148/206 185/149/207
f 200/244/281 187/6/6 186/148/208
f 199/245/282 188/4/4 187/6/6
f 198/246/4 189/172/4 188/4/4
f 197/247/4 190/170/229 189/172/4
f 56/100/283 190/170/229 191/248/284
f 55/56/116 191/248/285 192/54/286
f 194/143/38 169/249/268 192/54/38
f 66/111/152 193/250/268 194/143/38
f 192/54/286 195/142/199 194/143/200
f 191/248/284 196/144/201 195/142/202
f 100/169/204 196/144/201 197/247/4
f 116/147/204 197/247/4 198/246/4
f 22/107/134 198/246/4 199/245/282
f 58/102/287 199/245/282 200/244/281
f 57/62/125 200/244/288 201/60/280
f 185/149/44 202/251/264 201/60/44
f 153/219/18 202/252/264 203/242/16
f 133/18/18 203/242/16 204/16/16
f 182/204/16 205/253/279 204/16/16
f 74/120/163 205/253/279 206/166/278
f 180/74/223 207/165/222 206/166/223
f 179/239/276 208/12/12 207/165/224
f 178/238/274 209/10/10 208/12/12
f 177/237/10 210/182/10 209/10/10
f 176/236/10 211/180/240 210/182/10
f 80/125/289 211/180/240 212/235/221
f 79/73/178 212/235/290 213/71/219
f 173/163/273 214/254/272 213/71/55
f 144/212/262 214/255/272 215/213/13
f 171/13/13 216/211/13 215/213/13
f 170/232/13 193/228/268 216/211/13
f 204/16/16 203/242/16 183/202/16
f 138/1/1 121/191/251 10/2/2
f 188/4/4 117/189/249 15/5/5
f 149/7/7 113/196/248 21/8/8
f 209/10/10 125/194/253 27/11/11
f 171/13/13 172/233/272 14/14/14
f 204/16/16 205/256/279 29/17/17
f 123/43/27 124/193/239 11/44/28
f 142/46/30 143/15/15 14/14/14
f 102/48/32 101/171/230 20/49/33
f 155/51/35 154/221/265 17/52/36
f 192/54/38 169/249/268 18/55/39
f 98/57/41 97/167/226 26/58/42
f 201/60/44 202/251/264 23/61/45
f 165/63/47 164/229/269 24/64/48
f 110/66/50 109/181/241 32/67/51
f 132/69/53 133/18/18 29/17/17
f 213/71/55 214/254/272 30/72/56
f 180/74/58 181/240/279 9/75/59
f 33/45/61 81/21/291 82/20/62
f 35/78/64 82/20/65 83/19/65
f 83/19/67 81/21/292 38/80/68
f 11/44/28 38/80/275 81/21/70
f 10/81/2 34/77/252 82/20/71
f 37/76/60 9/75/59 36/79/73
f 84/24/75 85/23/293 40/82/76
f 85/23/78 86/22/294 42/84/79
f 43/86/81 86/22/295 84/24/82
f 39/83/31 14/257/14 44/87/84
f 13/88/86 40/82/260 85/23/87
f 12/89/89 42/84/238 86/22/90
f 87/27/92 88/26/296 46/90/93
f 88/26/95 89/25/297 48/92/96
f 49/94/98 89/25/298 87/27/99
f 45/91/37 17/258/36 50/95/101
f 16/96/103 46/90/266 88/26/104
f 15/5/5 48/92/250 89/25/106
f 90/30/108 91/29/108 52/97/109
f 53/98/111 91/29/299 92/28/112
f 92/28/114 90/30/300 56/100/115
f 20/49/33 56/100/283 90/30/117
f 19/101/118 52/97/233 91/29/119
f 55/56/40 18/55/39 54/99/121
f 93/33/123 94/32/301 58/102/124
f 59/103/126 94/32/127 95/31/127
f 61/105/129 95/31/302 93/33/130
f 57/62/46 23/61/45 62/106/132
f 22/107/134 58/102/287 94/32/135
f 21/108/8 60/104/247 95/31/137
f 63/59/139 96/36/303 8/35/140
f 65/110/142 8/35/304 7/34/143
f 7/34/145 96/36/305 68/112/146
f 26/58/42 68/112/271 96/36/148
f 25/114/149 64/109/228 8/35/150
f 67/113/49 24/259/48 66/111/152
f 6/39/154 5/38/306 70/115/155
f 5/38/157 4/37/307 72/117/158
f 73/119/160 4/37/308 6/39/161
f 69/116/54 29/260/17 74/120/163
f 28/121/165 70/115/255 5/38/166
f 27/11/11 72/117/254 4/37/168
f 75/68/170 3/42/309 2/41/171
f 77/123/173 2/41/310 1/40/174
f 1/40/176 3/42/311 80/125/177
f 32/67/51 80/125/289 3/42/179
f 31/126/180 76/122/244 2/41/181
f 79/73/57 30/72/56 78/124/183
f 106/127/185 41/85/80 42/84/79
f 105/129/187 13/88/86 41/85/88
f 161/130/189 53/134/111 54/131/113
f 160/133/191 19/261/118 53/134/120
f 119/135/193 47/93/97 48/92/96
f 120/137/194 16/96/103 47/93/105
f 136/138/196 35/141/64 36/139/66
f 137/3/3 10/2/2 35/141/72
f 195/142/199 65/110/142 66/111/144
f 196/144/201 25/114/149 65/110/151
f 115/145/203 59/103/126 60/104/128
f 116/147/204 22/107/134 59/103/136
f 186/148/206 49/94/98 50/95/100
f 187/6/6 15/5/5 49/94/107
f 146/150/209 77/154/173 78/151/175
f 147/153/211 31/262/180 77/154/182
f 127/155/213 71/118/159 72/117/158
f 128/157/214 28/121/165 71/118/167
f 151/158/216 61/161/129 62/159/131
f 150/9/9 21/8/8 61/161/138
f 174/162/218 43/86/81 44/87/83
f 175/164/220 12/89/89 43/86/91
f 207/165/222 73/119/160 74/120/162
f 208/12/12 27/11/11 73/119/169
f 114/146/225 113/188/248 97/167/226
f 63/59/139 64/109/141 99/168/227
f 64/109/228 25/114/149 100/169/204
f 190/170/229 20/49/33 101/171/230
f 118/136/231 117/189/249 101/171/230
f 51/50/110 52/97/109 103/173/232
f 52/97/233 19/101/118 104/174/234
f 140/175/191 13/263/86 105/176/187
f 122/178/236 121/192/251 105/129/187
f 123/43/237 122/178/237 106/127/185
f 42/84/238 12/89/89 108/179/239
f 211/180/240 32/67/51 109/181/241
f 126/156/242 125/194/253 109/181/241
f 75/68/170 76/122/172 111/183/213
f 76/122/244 31/126/180 112/184/245
f 167/185/211 26/264/42 97/186/226
f 60/104/247 21/108/8 113/188/248
f 98/57/227 99/168/227 115/145/203
f 99/168/205 100/169/204 116/147/204
f 189/172/4 101/171/230 117/189/249
f 48/92/250 15/5/5 117/189/249
f 102/48/232 103/173/232 119/135/193
f 103/173/235 104/174/234 120/137/194
f 139/190/1 105/265/187 121/191/251
f 34/77/252 10/81/2 121/192/251
f 33/45/61 34/77/63 122/178/237
f 107/128/27 108/179/239 124/193/239
f 210/182/10 109/181/241 125/194/253
f 72/117/254 27/11/11 125/194/253
f 110/66/243 111/183/213 127/155/213
f 111/183/246 112/184/245 128/157/214
f 168/195/7 97/266/226 113/196/248
f 28/197/165 128/217/214 129/198/7
f 70/200/255 28/197/165 130/199/9
f 69/70/156 70/200/155 131/201/216
f 152/160/53 153/219/18 133/18/18
f 183/202/16 154/221/265 134/203/257
f 36/139/73 9/267/59 134/203/257
f 155/51/259 156/205/196 136/138/196
f 156/205/198 157/206/3 137/3/3
f 157/206/3 158/207/1 138/1/1
f 158/207/1 159/225/1 139/190/1
f 159/208/1 160/133/191 140/175/191
f 40/209/260 13/263/86 140/175/191
f 39/47/77 40/209/76 141/210/189
f 162/132/261 163/227/267 143/15/15
f 216/211/13 164/229/269 144/212/262
f 78/151/183 30/268/56 144/212/262
f 165/63/210 166/214/270 146/150/209
f 166/214/212 167/185/211 147/153/211
f 112/215/245 31/262/180 147/153/211
f 128/217/214 112/269/245 148/218/7
f 130/199/9 129/198/7 149/7/7
f 131/201/217 130/199/9 150/9/9
f 132/69/256 131/201/216 151/158/216
f 62/159/132 23/270/45 153/219/18
f 184/220/264 17/52/36 154/221/265
f 135/140/258 134/203/257 154/221/265
f 45/53/94 46/222/93 156/205/196
f 46/222/266 16/223/103 157/206/3
f 16/223/103 120/224/194 158/207/1
f 120/224/194 104/271/234 159/225/1
f 104/226/234 19/261/118 160/133/191
f 141/210/192 140/175/191 160/133/191
f 142/46/190 141/210/189 161/130/189
f 54/131/121 18/272/39 163/227/267
f 193/228/268 24/64/48 164/229/269
f 145/152/263 144/212/262 164/229/269
f 67/65/147 68/230/146 166/214/270
f 68/230/271 26/264/42 167/185/211
f 148/216/7 147/153/211 167/185/211
f 129/198/7 148/218/7 168/195/7
f 163/227/267 18/272/39 169/231/268
f 143/15/15 163/227/267 170/232/13
f 215/213/13 214/255/272 172/233/272
f 44/87/84 14/257/14 172/234/272
f 213/71/219 212/235/290 174/162/218
f 212/235/221 211/180/240 175/164/220
f 108/179/239 12/89/89 175/164/220
f 124/193/239 108/179/239 176/236/10
f 11/44/28 124/193/239 177/237/10
f 38/80/275 11/44/28 178/238/274
f 37/76/69 38/80/68 179/239/277
f 206/166/278 205/253/279 181/240/279
f 134/203/257 9/267/59 181/241/279
f 203/242/16 202/251/264 184/243/264
f 50/95/101 17/258/36 184/243/264
f 201/60/280 200/244/288 186/148/206
f 200/244/281 199/245/282 187/6/6
f 199/245/282 198/246/4 188/4/4
f 198/246/4 197/247/4 189/172/4
f 197/247/4 196/144/201 190/170/229
f 56/100/283 20/49/33 190/170/229
f 55/56/116 56/100/115 191/248/285
f 194/143/38 193/250/268 169/249/268
f 66/111/152 24/259/48 193/250/268
f 192/54/286 191/248/285 195/142/199
f 191/248/284 190/170/229 196/144/201
f 100/169/204 25/114/149 196/144/201
f 116/147/204 100/169/204 197/247/4
f 22/107/134 116/147/204 198/246/4
f 58/102/287 22/107/134 199/245/282
f 57/62/125 58/102/124 200/244/288
f 185/149/44 184/243/264 202/251/264
f 153/219/18 23/270/45 202/252/264
f 133/18/18 153/219/18 203/242/16
f 182/204/16 181/240/279 205/253/279
f 74/120/163 29/260/17 205/253/279
f 180/74/223 179/239/277 207/165/222
f 179/239/276 178/238/274 208/12/12
f 178/238/274 177/237/10 209/10/10
f 177/237/10 176/236/10 210/182/10
f 176/236/10 175/164/220 211/180/240
f 80/125/289 32/67/51 211/180/240
f 79/73/178 80/125/177 212/235/290
f 173/163/273 172/234/272 214/254/272
f 144/212/262 30/268/56 214/255/272
f 171/13/13 170/232/13 216/211/13
f 170/232/13 169/231/268 193/228/268
