# Blender 4.5.3 LTS
# www.blender.org
mtllib modelo_cartel_consejo_tenico.mtl
g painting_Mesh
v 0.083577 0.000055 -0.095225
v 0.083577 0.000190 -0.095255
v 0.083607 0.000190 -0.095225
v 0.083607 0.003196 -0.095225
v 0.083577 0.003196 -0.095255
v 0.083577 0.003332 -0.095225
v -0.083629 0.000055 -0.095225
v -0.083660 0.000190 -0.095225
v 0.083549 0.003386 0.095205
v 0.083549 0.003068 0.095275
v 0.083619 0.003068 0.095205
v 0.083619 0.000318 0.095205
v 0.083549 0.000318 0.095275
v 0.083549 -0.000000 0.095205
v -0.083672 0.003068 0.095205
v -0.083601 0.003068 0.095275
v -0.083601 0.003386 0.095205
v -0.083601 0.000000 0.095205
v -0.083601 0.000318 0.095275
v -0.083672 0.000318 0.095205
v -0.083601 0.003068 -0.095267
v -0.083672 0.003068 -0.095196
v -0.083601 0.003386 -0.095196
v -0.083601 -0.000000 -0.095196
v -0.083672 0.000318 -0.095196
v -0.083601 0.000318 -0.095267
v 0.083619 0.003068 -0.095196
v 0.083549 0.003068 -0.095267
v 0.083549 0.003386 -0.095196
v 0.083549 -0.000000 -0.095196
v 0.083549 0.000318 -0.095267
v 0.083619 0.000318 -0.095196
v 0.083610 0.003068 0.095239
v 0.083583 0.003068 0.095266
v 0.083549 0.003224 0.095266
v 0.083549 0.003346 0.095239
v 0.083583 0.003346 0.095205
v 0.083610 0.003224 0.095205
v 0.083549 0.000041 0.095239
v 0.083549 0.000163 0.095266
v 0.083583 0.000318 0.095266
v 0.083610 0.000318 0.095239
v 0.083610 0.000163 0.095205
v 0.083583 0.000041 0.095205
v -0.083601 0.003346 0.095239
v -0.083601 0.003224 0.095266
v -0.083636 0.003068 0.095266
v -0.083663 0.003068 0.095239
v -0.083663 0.003224 0.095205
v -0.083636 0.003346 0.095205
v -0.083663 0.000318 0.095239
v -0.083636 0.000318 0.095266
v -0.083601 0.000163 0.095266
v -0.083601 0.000041 0.095239
v -0.083636 0.000041 0.095205
v -0.083663 0.000163 0.095205
v -0.083636 0.003346 -0.095196
v -0.083663 0.003224 -0.095196
v -0.083663 0.003068 -0.095231
v -0.083636 0.003068 -0.095258
v -0.083601 0.003224 -0.095258
v -0.083601 0.003346 -0.095231
v -0.083636 0.000318 -0.095258
v -0.083663 0.000318 -0.095231
v -0.083663 0.000163 -0.095196
v -0.083636 0.000041 -0.095196
v -0.083601 0.000041 -0.095231
v -0.083601 0.000163 -0.095258
v 0.083549 0.003346 -0.095231
v 0.083549 0.003224 -0.095258
v 0.083583 0.003068 -0.095258
v 0.083610 0.003068 -0.095231
v 0.083610 0.003224 -0.095196
v 0.083583 0.003346 -0.095196
v 0.083610 0.000318 -0.095231
v 0.083583 0.000318 -0.095258
v 0.083549 0.000163 -0.095258
v 0.083549 0.000041 -0.095231
v 0.083583 0.000041 -0.095196
v 0.083610 0.000163 -0.095196
v 0.083607 0.003196 0.095233
v 0.083577 0.003196 0.095263
v 0.083577 0.003332 0.095233
v 0.083577 0.000055 0.095233
v 0.083577 0.000190 0.095263
v 0.083607 0.000190 0.095233
v -0.083629 0.003332 0.095233
v -0.083629 0.003196 0.095263
v -0.083660 0.003196 0.095233
v -0.083660 0.000190 0.095233
v -0.083629 0.000190 0.095263
v -0.083629 0.000055 0.095233
v -0.083629 0.003332 -0.095225
v -0.083660 0.003196 -0.095225
v -0.083629 0.003196 -0.095255
v -0.083629 0.000190 -0.095255
v -0.083601 0.000525 -0.095267
v -0.083636 0.000525 -0.095258
v -0.083663 0.000525 -0.095231
v -0.083672 0.000525 -0.095196
v -0.083672 0.000525 0.095205
v -0.083663 0.000525 0.095239
v -0.083636 0.000525 0.095266
v -0.083601 0.000525 0.095275
v 0.083549 0.000525 0.095275
v 0.083583 0.000525 0.095266
v 0.083610 0.000525 0.095239
v 0.083619 0.000525 0.095205
v 0.083619 0.000525 -0.095196
v 0.083610 0.000525 -0.095231
v 0.083583 0.000525 -0.095258
v 0.083549 0.000525 -0.095267
v -0.083601 0.002834 -0.095267
v -0.083636 0.002834 -0.095258
v -0.083663 0.002834 -0.095231
v -0.083672 0.002834 -0.095196
v -0.083672 0.002834 0.095205
v -0.083663 0.002834 0.095239
v -0.083636 0.002834 0.095266
v -0.083601 0.002834 0.095275
v 0.083549 0.002834 0.095275
v 0.083583 0.002834 0.095266
v 0.083610 0.002834 0.095239
v 0.083619 0.002834 0.095205
v 0.083619 0.002834 -0.095196
v 0.083610 0.002834 -0.095231
v 0.083583 0.002834 -0.095258
v 0.083549 0.002834 -0.095267
v 0.083495 0.002834 -0.095267
v 0.083495 0.003068 -0.095267
v 0.083495 0.003224 -0.095258
v 0.083495 0.003346 -0.095231
v 0.083495 0.003386 -0.095196
v 0.083495 0.003386 0.095205
v 0.083495 0.003346 0.095239
v 0.083495 0.003224 0.095266
v 0.083495 0.003068 0.095275
v 0.083495 0.002834 0.095275
v 0.083495 0.000525 0.095275
v 0.083495 0.000318 0.095275
v 0.083495 0.000163 0.095266
v 0.083495 0.000041 0.095239
v 0.083495 -0.000000 0.095205
v 0.083495 -0.000000 -0.095196
v 0.083495 0.000041 -0.095231
v 0.083495 0.000163 -0.095258
v 0.083495 0.000318 -0.095267
v 0.083495 0.000525 -0.095267
v -0.083495 0.002834 -0.095267
v -0.083495 0.003068 -0.095267
v -0.083495 0.003224 -0.095258
v -0.083495 0.003346 -0.095231
v -0.083495 0.003386 -0.095196
v -0.083495 0.003386 0.095205
v -0.083495 0.003346 0.095239
v -0.083495 0.003224 0.095266
v -0.083495 0.003068 0.095275
v -0.083495 0.002834 0.095275
v -0.083495 0.000525 0.095275
v -0.083495 0.000318 0.095275
v -0.083495 0.000163 0.095266
v -0.083495 0.000041 0.095239
v -0.083495 0.000000 0.095205
v -0.083495 -0.000000 -0.095196
v -0.083495 0.000041 -0.095231
v -0.083495 0.000163 -0.095258
v -0.083495 0.000318 -0.095267
v -0.083495 0.000525 -0.095267
v -0.083601 0.000000 0.095167
v -0.083495 0.000000 0.095167
v 0.083495 -0.000000 0.095167
v 0.083549 -0.000000 0.095167
v 0.083583 0.000041 0.095167
v 0.083610 0.000163 0.095167
v 0.083619 0.000318 0.095167
v 0.083619 0.000525 0.095167
v 0.083619 0.002834 0.095167
v 0.083619 0.003068 0.095167
v 0.083610 0.003224 0.095167
v 0.083583 0.003346 0.095167
v 0.083549 0.003386 0.095167
v 0.083495 0.003386 0.095167
v -0.083495 0.003386 0.095167
v -0.083601 0.003386 0.095167
v -0.083636 0.003346 0.095167
v -0.083663 0.003224 0.095167
v -0.083672 0.003068 0.095167
v -0.083672 0.002834 0.095167
v -0.083672 0.000525 0.095167
v -0.083672 0.000318 0.095167
v -0.083663 0.000163 0.095167
v -0.083636 0.000041 0.095167
v -0.083601 -0.000000 -0.095167
v -0.083636 0.000041 -0.095167
v -0.083663 0.000163 -0.095167
v -0.083672 0.000318 -0.095167
v -0.083672 0.000525 -0.095167
v -0.083672 0.002834 -0.095167
v -0.083672 0.003068 -0.095167
v -0.083663 0.003224 -0.095167
v -0.083636 0.003346 -0.095167
v -0.083601 0.003386 -0.095167
v -0.083495 0.003386 -0.095167
v 0.083495 0.003386 -0.095167
v 0.083549 0.003386 -0.095167
v 0.083583 0.003346 -0.095167
v 0.083610 0.003224 -0.095167
v 0.083619 0.003068 -0.095167
v 0.083619 0.002834 -0.095167
v 0.083619 0.000525 -0.095167
v 0.083619 0.000318 -0.095167
v 0.083610 0.000163 -0.095167
v 0.083583 0.000041 -0.095167
v 0.083549 -0.000000 -0.095167
v 0.083495 -0.000000 -0.095167
v -0.083495 -0.000000 -0.095167
vn -0.0000 -0.0000 1.0000
vn 0.1240 0.0243 0.9920
vn -0.0000 0.0290 0.9996
vn -1.0000 -0.0000 -0.0000
vn -0.9920 0.0243 0.1238
vn -0.9996 0.0289 -0.0000
vn -0.0000 -0.0000 -1.0000
vn -0.1240 0.0243 -0.9920
vn -0.0000 0.0290 -0.9996
vn 1.0000 -0.0000 -0.0000
vn 0.9920 0.0243 -0.1241
vn 0.9996 0.0290 -0.0000
vn -0.0000 -1.0000 -0.0000
vn 0.3971 -0.8276 0.3967
vn -0.0000 -0.9075 0.4200
vn -0.0000 1.0000 -0.0000
vn 0.3970 0.8277 -0.3967
vn -0.0000 0.9076 -0.4199
vn 0.6986 0.1550 0.6986
vn 0.6986 -0.1550 0.6986
vn -0.6984 0.1549 0.6987
vn -0.6984 -0.1549 0.6987
vn -0.6984 0.1549 -0.6987
vn -0.6984 -0.1549 -0.6987
vn 0.6986 0.1550 -0.6986
vn 0.6986 -0.1550 -0.6986
vn 0.9675 -0.0000 0.2530
vn 0.9920 0.0243 0.1241
vn 0.9673 0.0176 0.2530
vn -0.0000 -0.6474 0.7622
vn 0.2926 -0.6607 0.6913
vn -0.9675 -0.0000 0.2527
vn -0.9920 -0.0243 0.1240
vn -0.9674 -0.0178 0.2525
vn -0.0000 0.6474 0.7622
vn -0.3967 0.8280 0.3964
vn -0.2926 0.6606 0.6914
vn -0.7622 -0.6473 -0.0000
vn -0.3965 -0.8279 0.3968
vn -0.6914 -0.6606 0.2926
vn -0.2529 -0.0000 -0.9675
vn -0.1240 -0.0243 -0.9920
vn -0.2528 -0.0177 -0.9674
vn -0.7622 0.6473 -0.0000
vn -0.3965 0.8279 -0.3967
vn -0.6913 0.6606 -0.2926
vn -0.0000 -0.6473 -0.7622
vn -0.3966 -0.8280 -0.3964
vn -0.2926 -0.6605 -0.6914
vn 0.9675 -0.0000 -0.2529
vn 0.9920 -0.0243 -0.1241
vn 0.9673 -0.0176 -0.2531
vn -0.0000 0.6473 -0.7622
vn 0.2926 0.6605 -0.6914
vn 0.7622 -0.6473 -0.0000
vn 0.3965 -0.8279 -0.3967
vn 0.6913 -0.6607 -0.2925
vn 0.7622 0.6473 -0.0000
vn 0.3966 0.8278 0.3969
vn 0.6914 0.6606 0.2926
vn 0.7069 0.0258 0.7069
vn 0.7061 0.0512 0.7063
vn 0.7069 0.0258 0.7068
vn 0.1540 0.2140 0.9646
vn 0.3039 0.2064 0.9301
vn 0.1536 0.2140 0.9647
vn 0.9301 0.2063 0.3039
vn 0.9646 0.2139 0.1541
vn 0.9647 0.2140 0.1536
vn 0.9832 0.0547 0.1739
vn 0.1741 0.0547 0.9832
vn 0.0893 0.0560 0.9944
vn 0.2925 0.6606 0.6914
vn 0.4707 0.7463 0.4707
vn 0.3038 -0.2063 0.9301
vn 0.1540 -0.2139 0.9646
vn 0.1536 -0.2140 0.9647
vn 0.7062 -0.0512 0.7062
vn 0.7068 -0.0258 0.7069
vn 0.9646 -0.2139 0.1539
vn 0.9301 -0.2064 0.3039
vn 0.9647 -0.2141 0.1537
vn 0.6914 -0.6606 0.2926
vn 0.4708 -0.7463 0.4706
vn 0.1240 -0.0243 0.9920
vn 0.1741 -0.0547 0.9832
vn 0.2528 -0.0176 0.9674
vn 0.9920 -0.0243 0.1240
vn 0.9833 -0.0547 0.1736
vn 0.9944 -0.0560 0.0891
vn -0.3039 0.2064 0.9301
vn -0.1540 0.2140 0.9646
vn -0.1537 0.2140 0.9647
vn -0.7060 0.0511 0.7064
vn -0.7067 0.0258 0.7070
vn -0.9646 0.2140 0.1540
vn -0.9301 0.2064 0.3038
vn -0.9647 0.2141 0.1536
vn -0.6914 0.6606 0.2926
vn -0.4708 0.7463 0.4706
vn -0.1240 0.0243 0.9920
vn -0.1741 0.0547 0.9832
vn -0.2528 0.0176 0.9673
vn -0.9832 0.0546 0.1743
vn -0.9944 0.0560 0.0893
vn -0.7061 -0.0511 0.7062
vn -0.7068 -0.0258 0.7070
vn -0.7068 -0.0258 0.7069
vn -0.1540 -0.2140 0.9646
vn -0.3039 -0.2064 0.9301
vn -0.1537 -0.2140 0.9647
vn -0.9302 -0.2064 0.3034
vn -0.9646 -0.2140 0.1540
vn -0.9647 -0.2141 0.1535
vn -0.9832 -0.0546 0.1743
vn -0.1241 -0.0243 0.9920
vn -0.1741 -0.0547 0.9832
vn -0.0893 -0.0560 0.9944
vn -0.2924 -0.6606 0.6914
vn -0.4706 -0.7463 0.4708
vn -0.9299 0.2063 -0.3044
vn -0.9646 0.2141 -0.1539
vn -0.9647 0.2140 -0.1536
vn -0.7066 0.0257 -0.7071
vn -0.7060 0.0512 -0.7064
vn -0.7068 0.0255 -0.7070
vn -0.1540 0.2139 -0.9646
vn -0.3039 0.2064 -0.9301
vn -0.1537 0.2140 -0.9647
vn -0.2924 0.6606 -0.6914
vn -0.4709 0.7461 -0.4707
vn -0.9920 0.0243 -0.1238
vn -0.9832 0.0546 -0.1743
vn -0.9675 0.0176 -0.2524
vn -0.1741 0.0546 -0.9832
vn -0.0893 0.0560 -0.9944
vn -0.7068 -0.0257 -0.7070
vn -0.7059 -0.0512 -0.7065
vn -0.7068 -0.0257 -0.7069
vn -0.9646 -0.2141 -0.1541
vn -0.9302 -0.2063 -0.3036
vn -0.9647 -0.2140 -0.1535
vn -0.3038 -0.2063 -0.9301
vn -0.1540 -0.2139 -0.9646
vn -0.1537 -0.2140 -0.9647
vn -0.1741 -0.0546 -0.9832
vn -0.9920 -0.0243 -0.1238
vn -0.9832 -0.0546 -0.1743
vn -0.9944 -0.0560 -0.0893
vn -0.6913 -0.6606 -0.2927
vn -0.4708 -0.7462 -0.4706
vn 0.3040 0.2064 -0.9301
vn 0.1540 0.2140 -0.9646
vn 0.1536 0.2140 -0.9647
vn 0.7061 0.0512 -0.7063
vn 0.7069 0.0257 -0.7069
vn 0.7069 0.0257 -0.7068
vn 0.9646 0.2139 -0.1540
vn 0.9300 0.2064 -0.3041
vn 0.9647 0.2140 -0.1536
vn 0.6913 0.6606 -0.2927
vn 0.4707 0.7462 -0.4708
vn 0.1240 0.0243 -0.9920
vn 0.1738 0.0546 -0.9833
vn 0.2526 0.0178 -0.9674
vn 0.9834 0.0548 -0.1733
vn 0.9944 0.0560 -0.0891
vn 0.7068 -0.0254 -0.7070
vn 0.7062 -0.0511 -0.7062
vn 0.1540 -0.2140 -0.9646
vn 0.3038 -0.2063 -0.9301
vn 0.1536 -0.2140 -0.9647
vn 0.9301 -0.2064 -0.3039
vn 0.9646 -0.2140 -0.1539
vn 0.9647 -0.2140 -0.1536
vn 0.9832 -0.0546 -0.1739
vn 0.1240 -0.0243 -0.9920
vn 0.1741 -0.0546 -0.9832
vn 0.0892 -0.0560 -0.9944
vn 0.2926 -0.6606 -0.6913
vn 0.4709 -0.7461 -0.4707
vn 0.7072 -0.0000 0.7070
vn 0.1274 -0.0000 0.9919
vn 0.2527 -0.0000 0.9675
vn -0.0000 -0.2166 0.9763
vn -0.0000 -0.2165 0.9763
vn -0.0000 -0.0289 0.9996
vn -0.0000 -0.0579 0.9983
vn -0.7069 -0.0000 0.7073
vn -0.1274 -0.0000 0.9918
vn -0.2528 -0.0000 0.9675
vn -0.0000 0.2166 0.9763
vn -0.0000 0.2165 0.9763
vn -0.0000 0.0579 0.9983
vn -0.9762 -0.2167 -0.0000
vn -0.9763 -0.2166 -0.0000
vn -0.9996 -0.0289 -0.0000
vn -0.9983 -0.0578 -0.0000
vn -0.7070 -0.0000 -0.7072
vn -0.9919 -0.0000 -0.1274
vn -0.9675 -0.0000 -0.2527
vn -0.9763 0.2166 -0.0000
vn -0.9762 0.2166 -0.0000
vn -0.9983 0.0578 -0.0000
vn -0.0000 -0.2166 -0.9763
vn -0.0000 -0.2165 -0.9763
vn -0.0000 -0.0289 -0.9996
vn -0.0000 -0.0579 -0.9983
vn 0.7072 -0.0000 -0.7070
vn 0.1274 -0.0000 -0.9918
vn 0.2528 -0.0000 -0.9675
vn -0.0000 0.2166 -0.9763
vn -0.0000 0.0579 -0.9983
vn 0.9763 -0.2165 -0.0000
vn 0.9763 -0.2166 -0.0000
vn 0.9996 -0.0289 -0.0000
vn 0.9983 -0.0579 -0.0000
vn 0.9763 0.2165 -0.0000
vn 0.9983 0.0579 -0.0000
vn -0.2528 -0.0000 -0.9675
vn -0.1275 -0.0000 -0.9918
vn -0.9676 -0.0178 -0.2520
vn -0.9675 -0.0000 -0.2528
vn -0.9919 -0.0000 0.1274
vn -0.9676 -0.0000 0.2524
vn -0.7070 -0.0000 0.7072
vn -0.2529 -0.0176 0.9673
vn -0.1275 -0.0000 0.9918
vn -0.0000 -0.0290 0.9996
vn 0.2528 -0.0000 0.9675
vn 0.9673 -0.0176 0.2529
vn 0.9918 -0.0000 0.1275
vn 0.9675 -0.0000 0.2529
vn 0.9996 -0.0290 -0.0000
vn 0.9918 -0.0000 -0.1275
vn 0.9675 -0.0000 -0.2528
vn 0.2524 -0.0179 -0.9674
vn -0.0000 -0.0290 -0.9996
vn -0.2526 0.0178 -0.9674
vn -0.9919 -0.0000 0.1272
vn -0.9675 0.0176 0.2524
vn 0.1275 -0.0000 0.9918
vn 0.2526 0.0178 0.9674
vn 0.9918 -0.0000 -0.1274
vn 0.9674 0.0179 -0.2526
vn -0.0000 0.0289 -0.9996
vn 0.0892 0.0560 -0.9944
vn -0.0000 0.2165 -0.9763
vn -0.0000 0.9075 0.4200
vn -0.0000 0.0289 0.9996
vn 0.0892 -0.0560 0.9944
vn -0.0000 -0.6473 0.7623
vn -0.0000 -0.9076 -0.4199
vn -0.0000 -0.6474 -0.7622
vn -0.4199 0.9076 -0.0000
vn -0.0000 0.9076 0.4199
vn -0.0893 0.0560 0.9944
vn -0.4199 -0.9076 -0.0000
vn -0.0893 -0.0560 -0.9944
vn 0.4199 -0.9075 -0.0000
vn 0.9996 0.0289 -0.0000
vn 0.9944 0.0560 0.0891
vn 0.9763 0.2166 -0.0000
vn 0.7623 0.6473 -0.0000
vn 0.4199 0.9076 -0.0000
vn -0.9944 -0.0560 0.0893
vn -0.9762 -0.2166 -0.0000
vn -0.7623 -0.6473 -0.0000
vn -0.9944 0.0560 -0.0893
vn -0.9762 0.2167 -0.0000
vn 0.9944 -0.0560 -0.0891
vn 0.4199 -0.9076 -0.0000
vn 0.7060 0.0511 0.7063
vn 0.3039 0.2063 0.9301
vn 0.9301 0.2063 0.3040
vn 0.3037 -0.2062 0.9302
vn 0.7062 -0.0511 0.7062
vn 0.9302 -0.2062 0.3036
vn -0.3038 0.2063 0.9302
vn -0.7060 0.0511 0.7063
vn -0.9302 0.2064 0.3036
vn -0.7061 -0.0511 0.7063
vn -0.3038 -0.2063 0.9302
vn -0.9302 -0.2064 0.3035
vn -0.9300 0.2065 -0.3040
vn -0.7060 0.0512 -0.7063
vn -0.3038 0.2063 -0.9302
vn -0.9300 -0.2064 -0.3040
vn -0.3038 -0.2063 -0.9302
vn 0.3039 0.2063 -0.9301
vn 0.7060 0.0512 -0.7063
vn 0.9301 0.2063 -0.3040
vn 0.3038 -0.2063 -0.9302
vn 0.9302 -0.2063 -0.3036
vt 0.000001 1.003226
vt -0.000321 1.001979
vt 0.000001 1.001979
vt 1.003981 1.000001
vt 1.002596 1.000189
vt 1.002600 0.999992
vt 0.999999 -0.003181
vt 1.000636 -0.001934
vt 0.999999 -0.001934
vt -0.003670 -0.000002
vt -0.002286 -0.000146
vt -0.002289 0.000007
vt 1.183452 0.013671
vt 1.183228 0.013514
vt 1.183452 0.013514
vt 0.000000 0.000000
vt -0.000322 -0.000154
vt 0.000000 -0.000154
vt -0.000721 1.000339
vt -0.001504 1.000549
vt -0.001530 1.000330
vt -0.034141 1.000325
vt -0.034166 1.000544
vt -0.034950 1.000333
vt 1.001841 1.000329
vt 1.001815 1.000548
vt 1.001032 1.000337
vt 1.035261 1.000338
vt 1.034477 1.000548
vt 1.034452 1.000329
vt 1.001813 -0.000505
vt 1.001839 -0.000286
vt 1.001029 -0.000294
vt 1.035264 -0.000294
vt 1.034453 -0.000287
vt 1.034479 -0.000505
vt -0.001529 -0.000286
vt -0.001503 -0.000504
vt -0.000718 -0.000293
vt -0.034954 -0.000291
vt -0.034169 -0.000502
vt -0.034143 -0.000283
vt -0.003669 1.000388
vt -0.002285 1.000190
vt -0.002279 1.000378
vt 1.183452 0.013290
vt 1.183228 0.013290
vt 1.032475 1.000384
vt 1.033697 1.000189
vt 1.033702 1.000377
vt 1.000000 1.000483
vt 1.000637 1.000199
vt 1.000637 1.000483
vt 1.035351 0.999993
vt 1.035647 1.000216
vt 1.035338 1.000187
vt 1.032477 -0.000544
vt 1.033725 -0.000725
vt 1.033713 -0.000536
vt 1.000942 0.000007
vt 1.000643 -0.000169
vt 1.000951 -0.000143
vt 1.882275 0.810532
vt 1.882720 0.810309
vt 1.882720 0.810532
vt -0.032166 -0.000339
vt -0.033386 -0.000143
vt -0.033393 -0.000331
vt 0.000000 -0.000438
vt -0.000322 -0.000438
vt -0.035040 0.000010
vt -0.035339 -0.000166
vt -0.035031 -0.000140
vt -0.000631 0.999994
vt -0.000335 1.000217
vt -0.000644 1.000188
vt -0.002270 1.000580
vt -0.001310 1.000671
vt -0.000578 1.000450
vt -0.001371 1.000180
vt -0.002258 1.000768
vt -0.034361 1.000666
vt -0.035093 1.000445
vt -0.033391 1.000373
vt -0.033401 1.000573
vt -0.034300 1.000175
vt -0.035028 1.000183
vt -0.033413 1.000761
vt -0.033385 1.000185
vt 1.001620 1.000670
vt 1.000889 1.000449
vt 1.002590 1.000377
vt 1.002580 1.000579
vt 1.001682 1.000178
vt 1.000954 1.000187
vt 1.002568 1.000766
vt 1.033712 1.000578
vt 1.034671 1.000671
vt 1.035404 1.000449
vt 1.034611 1.000179
vt 1.033724 1.000766
vt 1.001680 -0.000136
vt 1.002589 -0.000334
vt 1.002579 -0.000535
vt 1.001618 -0.000628
vt 1.000885 -0.000405
vt 1.002596 -0.000146
vt 1.002567 -0.000723
vt 1.033703 -0.000335
vt 1.034612 -0.000136
vt 1.035342 -0.000144
vt 1.034674 -0.000627
vt 1.035408 -0.000405
vt 1.033697 -0.000147
vt -0.001308 -0.000626
vt -0.000575 -0.000404
vt -0.002280 -0.000333
vt -0.002269 -0.000535
vt -0.001370 -0.000135
vt -0.000640 -0.000143
vt -0.002257 -0.000723
vt -0.033403 -0.000532
vt -0.034364 -0.000624
vt -0.035098 -0.000401
vt -0.034302 -0.000133
vt -0.033415 -0.000720
vt -0.032164 1.000580
vt -0.032164 1.000379
vt -0.032165 1.000767
vt 1.882275 0.012767
vt 1.882720 0.013290
vt 1.882275 0.013290
vt 1.882275 0.012115
vt 1.882720 0.012767
vt 1.003979 1.000587
vt 1.003979 1.000386
vt 1.003978 1.000774
vt 0.000001 1.001149
vt -0.000321 1.000484
vt 0.000001 1.000484
vt -0.000321 1.001149
vt 1.034613 0.000012
vt 1.035351 0.000007
vt 1.033693 0.000006
vt 1.003978 -0.000343
vt 1.003976 -0.000544
vt 1.003979 -0.000156
vt 1.001680 0.999987
vt 1.000942 0.999993
vt 1.183453 0.811055
vt 1.183228 0.810533
vt 1.183453 0.810533
vt 1.183453 0.811707
vt 1.183228 0.811055
vt -0.003667 -0.000544
vt -0.003668 -0.000342
vt -0.003666 -0.000731
vt 0.999999 -0.001104
vt 1.000636 -0.000439
vt 0.999999 -0.000439
vt 1.000636 -0.001104
vt -0.034302 0.999983
vt -0.035039 0.999989
vt -0.033382 0.999988
vt -0.001369 0.000013
vt -0.000632 0.000008
vt 1.032479 -0.000731
vt 1.032476 -0.000342
vt 1.032475 -0.000155
vt 1.033693 0.999992
vt 1.032475 1.000197
vt 1.032474 1.000000
vt 1.032476 1.000585
vt 1.032477 1.000773
vt 1.183452 0.012116
vt 1.183228 0.011252
vt 1.183452 0.011252
vt -0.003668 1.000590
vt -0.032163 1.000193
vt -0.033383 0.000009
vt -0.032165 -0.000151
vt -0.032164 0.000001
vt -0.032168 -0.000540
vt -0.032169 -0.000727
vt 1.882275 0.811707
vt 1.882720 0.812571
vt 1.882275 0.812571
vt 1.003975 -0.000731
vt 1.003980 1.000198
vt 0.000005 1.028940
vt -0.000322 1.003224
vt -0.003668 1.000778
vt -0.003669 1.000200
vt -0.003669 -0.000155
vt 0.999999 -0.028894
vt 1.000636 -0.003181
vt -0.000322 -0.001934
vt 0.000000 -0.003180
vt 0.000000 -0.001934
vt -0.000322 -0.001103
vt 0.000000 -0.001103
vt 1.000000 0.999999
vt 0.000001 1.000200
vt 0.000001 1.000000
vt 1.000000 1.001148
vt 1.000000 1.001978
vt 1.000000 1.003224
vt 1.882275 0.011251
vt 1.183228 0.012768
vt 1.183452 0.012768
vt 1.882275 0.810188
vt 1.183453 0.810310
vt 1.183453 0.810188
vt 1.882275 0.811055
vt 1.183228 0.812572
vt 1.183453 0.812572
vt -0.000322 -0.003180
vt 0.000000 -0.028893
vt 0.999999 -0.000154
vt 1.000637 0.999999
vt 1.000000 1.000199
vt 1.000637 1.001148
vt 1.000637 1.001978
vt 1.000637 1.003223
vt 1.000000 1.028939
vt 1.882720 0.011251
vt 1.882275 0.013513
vt 1.882720 0.810188
vt 1.882275 0.810309
vt 1.882720 0.811055
vt 1.882720 0.013670
vt 1.882275 0.013670
vt 1.183228 0.013671
vt -0.035354 0.999995
vt -0.034303 0.000015
vt -0.032162 0.999996
vt -0.003669 1.000002
vt -0.002289 0.999993
vt -0.001369 0.999988
vt -0.000317 1.000000
vt -0.000321 1.000000
vt 0.999999 0.000000
vt 1.000628 0.999999
vt 1.001679 0.000012
vt 1.002599 0.000006
vt 1.003980 -0.000003
vt 1.032474 -0.000002
vt 1.034613 0.999987
vt 1.035665 0.999999
vt 1.035665 -0.000000
vt 1.000627 0.000000
vt 1.000636 0.000000
vt -0.000317 0.000000
vt -0.035355 0.000003
vt 1.183228 0.810188
vt -0.000322 0.000000
vt -0.035331 1.000213
vt 1.000651 1.000217
vt 1.035646 -0.000170
vt -0.000337 -0.000170
vt 1.882720 0.012115
vt 1.183228 0.811707
vt 1.183228 0.012116
vt 1.882720 0.811707
vt -0.000316 1.028941
vt 1.000636 -0.028894
vt -0.000321 1.000200
vt 1.183228 0.810310
vt -0.000322 -0.028893
vt 1.000636 -0.000154
vt 1.000636 1.028940
vt 1.882720 0.013513
s 1
g off
g painting_Material.012
usemtl Material.012
f 138/1/1 10/2/2 137/3/3
s 2
f 188/4/4 15/5/5 187/6/6
s 3
f 149/7/7 21/8/8 150/9/9
s 4
f 209/10/10 27/11/11 208/12/12
s 5
f 171/13/13 14/14/14 143/15/15
s 6
f 204/16/16 29/17/17 133/18/18
s 7
f 83/19/19 82/20/19 81/21/19
s 8
f 86/22/20 85/23/20 84/24/20
s 9
f 89/25/21 88/26/21 87/27/21
s 10
f 92/28/22 91/29/22 90/30/22
s 11
f 95/31/23 94/32/23 93/33/23
s 12
f 7/34/24 8/35/24 96/36/24
s 13
f 4/37/25 5/38/25 6/39/25
s 14
f 1/40/26 2/41/26 3/42/26
s 4
f 123/43/27 11/44/28 33/45/29
s 5
f 142/46/30 14/14/14 39/47/31
s 2
f 102/48/32 20/49/33 51/50/34
s 6
f 155/51/35 17/52/36 45/53/37
s 5
f 192/54/38 18/55/39 55/56/40
s 3
f 98/57/41 26/58/42 63/59/43
s 6
f 201/60/44 23/61/45 57/62/46
s 5
f 165/63/47 24/64/48 67/65/49
s 4
f 110/66/50 32/67/51 75/68/52
s 6
f 132/69/53 29/17/17 69/70/54
s 5
f 213/71/55 30/72/56 79/73/57
s 6
f 180/74/58 9/75/59 37/76/60
s 15
f 33/45/61 82/20/62 34/77/63
s 16
f 35/78/64 83/19/65 36/79/66
s 17
f 83/19/67 38/80/68 37/76/69
s 4
f 11/44/28 81/21/70 33/45/29
s 1
f 10/81/2 82/20/71 35/78/72
s 6
f 37/76/60 36/79/73 83/19/74
s 18
f 84/24/75 40/82/76 39/83/77
s 15
f 85/23/78 42/84/79 41/85/79
s 19
f 43/86/80 84/24/81 44/87/82
s 5
f 39/83/31 44/87/83 84/24/84
s 1
f 13/88/85 85/23/86 41/85/87
s 4
f 12/89/88 86/22/89 43/86/90
s 16
f 87/27/91 46/90/92 45/91/93
s 20
f 88/26/94 48/92/95 47/93/95
s 21
f 49/94/96 87/27/97 50/95/98
s 6
f 45/91/37 50/95/99 87/27/100
s 1
f 16/96/101 88/26/102 47/93/103
s 2
f 15/5/5 89/25/104 49/94/105
s 20
f 90/30/106 52/97/107 51/50/108
s 18
f 53/98/109 92/28/110 54/99/111
s 22
f 92/28/112 56/100/113 55/56/114
s 2
f 20/49/33 90/30/115 51/50/34
s 1
f 19/101/116 91/29/117 53/98/118
s 5
f 55/56/40 54/99/119 92/28/120
s 21
f 93/33/121 58/102/122 57/62/123
s 23
f 59/103/124 95/31/125 60/104/126
s 24
f 61/105/127 93/33/128 62/106/129
s 6
f 57/62/46 62/106/130 93/33/131
s 2
f 22/107/132 94/32/133 59/103/134
s 3
f 21/108/8 95/31/135 61/105/136
s 23
f 63/59/137 8/35/138 64/109/139
s 22
f 65/110/140 7/34/141 66/111/142
s 25
f 7/34/143 68/112/144 67/113/145
s 3
f 26/58/42 96/36/146 63/59/43
s 2
f 25/114/147 8/35/148 65/110/149
s 5
f 67/113/49 66/111/150 7/34/151
s 24
f 6/39/152 70/115/153 69/116/154
s 26
f 5/38/155 72/117/156 71/118/157
s 17
f 73/119/158 6/39/159 74/120/160
s 6
f 69/116/54 74/120/161 6/39/162
s 3
f 28/121/163 5/38/164 71/118/165
s 4
f 27/11/11 4/37/166 73/119/167
s 26
f 75/68/168 2/41/169 76/122/168
s 25
f 77/123/170 1/40/171 78/124/172
s 19
f 1/40/173 80/125/174 79/73/175
s 4
f 32/67/51 3/42/176 75/68/52
s 3
f 31/126/177 2/41/178 77/123/179
s 5
f 79/73/57 78/124/180 1/40/181
s 15
f 106/127/182 42/84/79 107/128/182
s 1
f 105/129/183 41/85/87 106/127/184
s 18
f 161/130/185 54/131/111 162/132/186
s 1
f 160/133/187 53/134/118 161/130/188
s 20
f 119/135/189 48/92/95 118/136/189
s 1
f 120/137/190 47/93/103 119/135/191
s 16
f 136/138/192 36/139/66 135/140/193
s 1
f 137/3/3 35/141/72 136/138/194
s 22
f 195/142/195 66/111/142 194/143/196
s 2
f 196/144/197 65/110/149 195/142/198
s 23
f 115/145/199 60/104/126 114/146/199
s 2
f 116/147/200 59/103/134 115/145/201
s 21
f 186/148/202 50/95/98 185/149/203
s 2
f 187/6/6 49/94/105 186/148/204
s 25
f 146/150/205 78/151/172 145/152/206
s 3
f 147/153/207 77/154/179 146/150/208
s 26
f 127/155/209 72/117/156 126/156/209
s 3
f 128/157/210 71/118/165 127/155/211
s 24
f 151/158/212 62/159/129 152/160/212
s 3
f 150/9/9 61/161/136 151/158/213
s 19
f 174/162/214 44/87/82 173/163/215
s 4
f 175/164/216 43/86/90 174/162/217
s 17
f 207/165/218 74/120/160 206/166/218
s 4
f 208/12/12 73/119/167 207/165/219
s 3
f 114/146/220 97/167/221 98/57/41
s 23
f 63/59/137 99/168/199 98/57/199
s 2
f 64/109/222 100/169/200 99/168/223
f 190/170/197 101/171/224 189/172/4
f 118/136/225 101/171/224 102/48/32
s 20
f 51/50/108 103/173/226 102/48/226
s 1
f 52/97/227 104/174/228 103/173/191
f 140/175/229 105/176/183 139/177/1
f 122/178/230 105/129/183 106/127/184
s 15
f 123/43/182 106/127/182 107/128/182
s 4
f 42/84/231 108/179/232 107/128/233
f 211/180/234 109/181/235 210/182/10
f 126/156/236 109/181/235 110/66/50
s 26
f 75/68/168 111/183/209 110/66/209
s 3
f 76/122/237 112/184/210 111/183/211
f 167/185/238 97/186/221 168/187/7
f 60/104/239 113/188/221 114/146/220
s 23
f 98/57/199 115/145/199 114/146/199
s 2
f 99/168/223 116/147/200 115/145/201
f 189/172/4 117/189/240 188/4/4
f 48/92/241 117/189/240 118/136/225
s 20
f 102/48/226 119/135/189 118/136/189
s 1
f 103/173/191 120/137/190 119/135/191
f 139/190/1 121/191/242 138/1/1
f 34/77/243 121/192/242 122/178/230
s 15
f 33/45/61 122/178/182 123/43/182
s 4
f 107/128/233 124/193/232 123/43/27
f 210/182/10 125/194/244 209/10/10
f 72/117/245 125/194/244 126/156/236
s 26
f 110/66/209 127/155/209 126/156/209
s 3
f 111/183/211 128/157/210 127/155/211
f 168/195/7 113/196/221 149/7/7
f 28/197/163 129/198/7 130/199/246
f 70/200/247 130/199/246 131/201/213
s 24
f 69/70/154 131/201/212 132/69/248
s 6
f 152/160/53 133/18/18 132/69/53
f 183/202/16 134/203/249 182/204/16
f 36/139/73 134/203/249 135/140/35
s 16
f 155/51/193 136/138/192 135/140/193
s 1
f 156/205/194 137/3/3 136/138/194
f 157/206/250 138/1/1 137/3/3
f 158/207/1 139/190/1 138/1/1
f 159/208/1 140/175/229 139/177/1
f 40/209/251 140/175/229 141/210/188
s 18
f 39/47/77 141/210/185 142/46/186
s 5
f 162/132/252 143/15/15 142/46/30
f 216/211/13 144/212/253 215/213/13
f 78/151/180 144/212/253 145/152/254
s 25
f 165/63/205 146/150/205 145/152/206
s 3
f 166/214/208 147/153/207 146/150/208
f 112/215/210 147/153/207 148/216/7
f 128/217/210 148/218/7 129/198/7
f 130/199/246 149/7/7 150/9/9
f 131/201/213 150/9/9 151/158/213
s 24
f 132/69/248 151/158/212 152/160/212
s 6
f 62/159/130 153/219/18 152/160/53
f 184/220/255 154/221/256 183/202/16
f 135/140/35 154/221/256 155/51/35
s 16
f 45/53/93 156/205/192 155/51/193
s 1
f 46/222/257 157/206/250 156/205/194
f 16/223/101 158/207/1 157/206/250
f 120/224/190 159/225/1 158/207/1
f 104/226/228 160/133/187 159/208/1
f 141/210/188 160/133/187 161/130/188
s 18
f 142/46/186 161/130/185 162/132/186
s 5
f 54/131/119 163/227/15 162/132/252
f 193/228/258 164/229/253 216/211/13
f 145/152/254 164/229/253 165/63/47
s 25
f 67/65/145 166/214/205 165/63/205
s 3
f 68/230/259 167/185/238 166/214/208
f 148/216/7 167/185/238 168/187/7
f 129/198/7 168/195/7 149/7/7
s 5
f 163/227/15 169/231/258 170/232/13
f 143/15/15 170/232/13 171/13/13
f 215/213/13 172/233/260 171/13/13
f 44/87/83 172/234/260 173/163/55
s 19
f 213/71/214 174/162/214 173/163/215
s 4
f 212/235/217 175/164/216 174/162/217
f 108/179/232 175/164/216 176/236/10
f 124/193/232 176/236/10 177/237/10
f 11/44/28 177/237/10 178/238/261
f 38/80/262 178/238/261 179/239/219
s 17
f 37/76/69 179/239/218 180/74/263
s 6
f 206/166/264 181/240/265 180/74/58
f 134/203/249 181/241/265 182/204/16
f 204/16/16 183/202/16 182/204/16
f 203/242/16 184/243/255 183/202/16
f 50/95/99 184/243/255 185/149/44
s 21
f 201/60/202 186/148/202 185/149/203
s 2
f 200/244/204 187/6/6 186/148/204
f 199/245/6 188/4/4 187/6/6
f 198/246/4 189/172/4 188/4/4
f 197/247/4 190/170/197 189/172/4
f 56/100/266 190/170/197 191/248/198
s 22
f 55/56/114 191/248/196 192/54/267
s 5
f 194/143/268 169/249/258 192/54/38
f 66/111/150 193/250/258 194/143/268
s 22
f 192/54/267 195/142/195 194/143/196
s 2
f 191/248/198 196/144/197 195/142/198
f 100/169/200 196/144/197 197/247/4
f 116/147/200 197/247/4 198/246/4
f 22/107/132 198/246/4 199/245/6
f 58/102/269 199/245/6 200/244/204
s 21
f 57/62/123 200/244/270 201/60/202
s 6
f 185/149/44 202/251/255 201/60/44
f 153/219/18 202/252/255 203/242/16
f 133/18/18 203/242/16 204/16/16
f 182/204/16 205/253/265 204/16/16
f 74/120/161 205/253/265 206/166/264
s 17
f 180/74/263 207/165/218 206/166/218
s 4
f 179/239/219 208/12/12 207/165/219
f 178/238/261 209/10/10 208/12/12
f 177/237/10 210/182/10 209/10/10
f 176/236/10 211/180/234 210/182/10
f 80/125/271 211/180/234 212/235/217
s 19
f 79/73/175 212/235/214 213/71/214
s 5
f 173/163/55 214/254/272 213/71/55
f 144/212/253 214/255/272 215/213/13
f 171/13/13 216/211/13 215/213/13
f 170/232/13 193/228/258 216/211/13
s 6
f 204/16/16 203/242/16 183/202/16
s 1
f 138/1/1 121/191/242 10/2/2
s 2
f 188/4/4 117/189/240 15/5/5
s 3
f 149/7/7 113/196/221 21/8/8
s 4
f 209/10/10 125/194/244 27/11/11
s 5
f 171/13/13 172/233/260 14/14/14
s 6
f 204/16/16 205/256/265 29/17/17
s 4
f 123/43/27 124/193/232 11/44/28
s 5
f 142/46/30 143/15/15 14/14/14
s 2
f 102/48/32 101/171/224 20/49/33
s 6
f 155/51/35 154/221/256 17/52/36
s 5
f 192/54/38 169/249/258 18/55/39
s 3
f 98/57/41 97/167/221 26/58/42
s 6
f 201/60/44 202/251/255 23/61/45
s 5
f 165/63/47 164/229/253 24/64/48
s 4
f 110/66/50 109/181/235 32/67/51
s 6
f 132/69/53 133/18/18 29/17/17
s 5
f 213/71/55 214/254/272 30/72/56
s 6
f 180/74/58 181/240/265 9/75/59
s 15
f 33/45/61 81/21/273 82/20/62
s 16
f 35/78/64 82/20/274 83/19/65
s 17
f 83/19/67 81/21/275 38/80/68
s 4
f 11/44/28 38/80/262 81/21/70
s 1
f 10/81/2 34/77/243 82/20/71
s 6
f 37/76/60 9/75/59 36/79/73
s 18
f 84/24/75 85/23/276 40/82/76
s 15
f 85/23/78 86/22/277 42/84/79
s 19
f 43/86/80 86/22/278 84/24/81
s 5
f 39/83/31 14/257/14 44/87/83
s 1
f 13/88/85 40/82/251 85/23/86
s 4
f 12/89/88 42/84/231 86/22/89
s 16
f 87/27/91 88/26/279 46/90/92
s 20
f 88/26/94 89/25/280 48/92/95
s 21
f 49/94/96 89/25/281 87/27/97
s 6
f 45/91/37 17/258/36 50/95/99
s 1
f 16/96/101 46/90/257 88/26/102
s 2
f 15/5/5 48/92/241 89/25/104
s 20
f 90/30/106 91/29/282 52/97/107
s 18
f 53/98/109 91/29/283 92/28/110
s 22
f 92/28/112 90/30/284 56/100/113
s 2
f 20/49/33 56/100/266 90/30/115
s 1
f 19/101/116 52/97/227 91/29/117
s 5
f 55/56/40 18/55/39 54/99/119
s 21
f 93/33/121 94/32/285 58/102/122
s 23
f 59/103/124 94/32/286 95/31/125
s 24
f 61/105/127 95/31/287 93/33/128
s 6
f 57/62/46 23/61/45 62/106/130
s 2
f 22/107/132 58/102/269 94/32/133
s 3
f 21/108/8 60/104/239 95/31/135
s 23
f 63/59/137 96/36/138 8/35/138
s 22
f 65/110/140 8/35/288 7/34/141
s 25
f 7/34/143 96/36/289 68/112/144
s 3
f 26/58/42 68/112/259 96/36/146
s 2
f 25/114/147 64/109/222 8/35/148
s 5
f 67/113/49 24/259/48 66/111/150
s 24
f 6/39/152 5/38/290 70/115/153
s 26
f 5/38/155 4/37/291 72/117/156
s 17
f 73/119/158 4/37/292 6/39/159
s 6
f 69/116/54 29/260/17 74/120/161
s 3
f 28/121/163 70/115/247 5/38/164
s 4
f 27/11/11 72/117/245 4/37/166
s 26
f 75/68/168 3/42/169 2/41/169
s 25
f 77/123/170 2/41/293 1/40/171
s 19
f 1/40/173 3/42/294 80/125/174
s 4
f 32/67/51 80/125/271 3/42/176
s 3
f 31/126/177 76/122/237 2/41/178
s 5
f 79/73/57 30/72/56 78/124/180
s 15
f 106/127/182 41/85/79 42/84/79
s 1
f 105/129/183 13/88/85 41/85/87
s 18
f 161/130/185 53/134/109 54/131/111
s 1
f 160/133/187 19/261/116 53/134/118
s 20
f 119/135/189 47/93/95 48/92/95
s 1
f 120/137/190 16/96/101 47/93/103
s 16
f 136/138/192 35/141/64 36/139/66
s 1
f 137/3/3 10/2/2 35/141/72
s 22
f 195/142/195 65/110/140 66/111/142
s 2
f 196/144/197 25/114/147 65/110/149
s 23
f 115/145/199 59/103/124 60/104/126
s 2
f 116/147/200 22/107/132 59/103/134
s 21
f 186/148/202 49/94/96 50/95/98
s 2
f 187/6/6 15/5/5 49/94/105
s 25
f 146/150/205 77/154/170 78/151/172
s 3
f 147/153/207 31/262/177 77/154/179
s 26
f 127/155/209 71/118/157 72/117/156
s 3
f 128/157/210 28/121/163 71/118/165
s 24
f 151/158/212 61/161/127 62/159/129
s 3
f 150/9/9 21/8/8 61/161/136
s 19
f 174/162/214 43/86/80 44/87/82
s 4
f 175/164/216 12/89/88 43/86/90
s 17
f 207/165/218 73/119/158 74/120/160
s 4
f 208/12/12 27/11/11 73/119/167
s 3
f 114/146/220 113/188/221 97/167/221
s 23
f 63/59/137 64/109/139 99/168/199
s 2
f 64/109/222 25/114/147 100/169/200
f 190/170/197 20/49/33 101/171/224
f 118/136/225 117/189/240 101/171/224
s 20
f 51/50/108 52/97/107 103/173/226
s 1
f 52/97/227 19/101/116 104/174/228
f 140/175/229 13/263/85 105/176/183
f 122/178/230 121/192/242 105/129/183
s 15
f 123/43/182 122/178/182 106/127/182
s 4
f 42/84/231 12/89/88 108/179/232
f 211/180/234 32/67/51 109/181/235
f 126/156/236 125/194/244 109/181/235
s 26
f 75/68/168 76/122/168 111/183/209
s 3
f 76/122/237 31/126/177 112/184/210
f 167/185/238 26/264/42 97/186/221
f 60/104/239 21/108/8 113/188/221
s 23
f 98/57/199 99/168/199 115/145/199
s 2
f 99/168/223 100/169/200 116/147/200
f 189/172/4 101/171/224 117/189/240
f 48/92/241 15/5/5 117/189/240
s 20
f 102/48/226 103/173/226 119/135/189
s 1
f 103/173/191 104/174/228 120/137/190
f 139/190/1 105/265/183 121/191/242
f 34/77/243 10/81/2 121/192/242
s 15
f 33/45/61 34/77/63 122/178/182
s 4
f 107/128/233 108/179/232 124/193/232
f 210/182/10 109/181/235 125/194/244
f 72/117/245 27/11/11 125/194/244
s 26
f 110/66/209 111/183/209 127/155/209
s 3
f 111/183/211 112/184/210 128/157/210
f 168/195/7 97/266/221 113/196/221
f 28/197/163 128/217/210 129/198/7
f 70/200/247 28/197/163 130/199/246
s 24
f 69/70/154 70/200/153 131/201/212
s 6
f 152/160/53 153/219/18 133/18/18
f 183/202/16 154/221/256 134/203/249
f 36/139/73 9/267/59 134/203/249
s 16
f 155/51/193 156/205/192 136/138/192
s 1
f 156/205/194 157/206/250 137/3/3
f 157/206/250 158/207/1 138/1/1
f 158/207/1 159/225/1 139/190/1
f 159/208/1 160/133/187 140/175/229
f 40/209/251 13/263/85 140/175/229
s 18
f 39/47/77 40/209/76 141/210/185
s 5
f 162/132/252 163/227/15 143/15/15
f 216/211/13 164/229/253 144/212/253
f 78/151/180 30/268/56 144/212/253
s 25
f 165/63/205 166/214/205 146/150/205
s 3
f 166/214/208 167/185/238 147/153/207
f 112/215/210 31/262/177 147/153/207
f 128/217/210 112/269/210 148/218/7
f 130/199/246 129/198/7 149/7/7
f 131/201/213 130/199/246 150/9/9
s 24
f 132/69/248 131/201/212 151/158/212
s 6
f 62/159/130 23/270/45 153/219/18
f 184/220/255 17/52/36 154/221/256
f 135/140/35 134/203/249 154/221/256
s 16
f 45/53/93 46/222/92 156/205/192
s 1
f 46/222/257 16/223/101 157/206/250
f 16/223/101 120/224/190 158/207/1
f 120/224/190 104/271/228 159/225/1
f 104/226/228 19/261/116 160/133/187
f 141/210/188 140/175/229 160/133/187
s 18
f 142/46/186 141/210/185 161/130/185
s 5
f 54/131/119 18/272/39 163/227/15
f 193/228/258 24/64/48 164/229/253
f 145/152/254 144/212/253 164/229/253
s 25
f 67/65/145 68/230/144 166/214/205
s 3
f 68/230/259 26/264/42 167/185/238
f 148/216/7 147/153/207 167/185/238
f 129/198/7 148/218/7 168/195/7
s 5
f 163/227/15 18/272/39 169/231/258
f 143/15/15 163/227/15 170/232/13
f 215/213/13 214/255/272 172/233/260
f 44/87/83 14/257/14 172/234/260
s 19
f 213/71/214 212/235/214 174/162/214
s 4
f 212/235/217 211/180/234 175/164/216
f 108/179/232 12/89/88 175/164/216
f 124/193/232 108/179/232 176/236/10
f 11/44/28 124/193/232 177/237/10
f 38/80/262 11/44/28 178/238/261
s 17
f 37/76/69 38/80/68 179/239/218
s 6
f 206/166/264 205/253/265 181/240/265
f 134/203/249 9/267/59 181/241/265
f 203/242/16 202/251/255 184/243/255
f 50/95/99 17/258/36 184/243/255
s 21
f 201/60/202 200/244/270 186/148/202
s 2
f 200/244/204 199/245/6 187/6/6
f 199/245/6 198/246/4 188/4/4
f 198/246/4 197/247/4 189/172/4
f 197/247/4 196/144/197 190/170/197
f 56/100/266 20/49/33 190/170/197
s 22
f 55/56/114 56/100/113 191/248/196
s 5
f 194/143/268 193/250/258 169/249/258
f 66/111/150 24/259/48 193/250/258
s 22
f 192/54/267 191/248/196 195/142/195
s 2
f 191/248/198 190/170/197 196/144/197
f 100/169/200 25/114/147 196/144/197
f 116/147/200 100/169/200 197/247/4
f 22/107/132 116/147/200 198/246/4
f 58/102/269 22/107/132 199/245/6
s 21
f 57/62/123 58/102/122 200/244/270
s 6
f 185/149/44 184/243/255 202/251/255
f 153/219/18 23/270/45 202/252/255
f 133/18/18 153/219/18 203/242/16
f 182/204/16 181/240/265 205/253/265
f 74/120/161 29/260/17 205/253/265
s 17
f 180/74/263 179/239/218 207/165/218
s 4
f 179/239/219 178/238/261 208/12/12
f 178/238/261 177/237/10 209/10/10
f 177/237/10 176/236/10 210/182/10
f 176/236/10 175/164/216 211/180/234
f 80/125/271 32/67/51 211/180/234
s 19
f 79/73/175 80/125/174 212/235/214
s 5
f 173/163/55 172/234/260 214/254/272
f 144/212/253 30/268/56 214/255/272
f 171/13/13 170/232/13 216/211/13
f 170/232/13 169/231/258 193/228/258
