# Blender 4.5.3 LTS
# www.blender.org
mtllib modelo_cartel_azul.mtl
g painting_Mesh
v 0.167154 0.000055 -0.095225
v 0.167154 0.000190 -0.095255
v 0.167214 0.000190 -0.095225
v 0.167214 0.003196 -0.095225
v 0.167154 0.003196 -0.095255
v 0.167154 0.003332 -0.095225
v -0.167259 0.000055 -0.095225
v -0.167319 0.000190 -0.095225
v 0.167097 0.003386 0.095205
v 0.167097 0.003068 0.095275
v 0.167238 0.003068 0.095205
v 0.167238 0.000318 0.095205
v 0.167097 0.000318 0.095275
v 0.167097 -0.000000 0.095205
v -0.167343 0.003068 0.095205
v -0.167202 0.003068 0.095275
v -0.167202 0.003386 0.095205
v -0.167202 0.000000 0.095205
v -0.167202 0.000318 0.095275
v -0.167343 0.000318 0.095205
v -0.167202 0.003068 -0.095267
v -0.167343 0.003068 -0.095196
v -0.167202 0.003386 -0.095196
v -0.167202 -0.000000 -0.095196
v -0.167343 0.000318 -0.095196
v -0.167202 0.000318 -0.095267
v 0.167238 0.003068 -0.095196
v 0.167097 0.003068 -0.095267
v 0.167097 0.003386 -0.095196
v 0.167097 -0.000000 -0.095196
v 0.167097 0.000318 -0.095267
v 0.167238 0.000318 -0.095196
v 0.167220 0.003068 0.095239
v 0.167166 0.003068 0.095266
v 0.167097 0.003224 0.095266
v 0.167097 0.003346 0.095239
v 0.167166 0.003346 0.095205
v 0.167220 0.003224 0.095205
v 0.167097 0.000041 0.095239
v 0.167097 0.000163 0.095266
v 0.167166 0.000318 0.095266
v 0.167220 0.000318 0.095239
v 0.167220 0.000163 0.095205
v 0.167166 0.000041 0.095205
v -0.167202 0.003346 0.095239
v -0.167202 0.003224 0.095266
v -0.167271 0.003068 0.095266
v -0.167325 0.003068 0.095239
v -0.167325 0.003224 0.095205
v -0.167271 0.003346 0.095205
v -0.167325 0.000318 0.095239
v -0.167271 0.000318 0.095266
v -0.167202 0.000163 0.095266
v -0.167202 0.000041 0.095239
v -0.167271 0.000041 0.095205
v -0.167325 0.000163 0.095205
v -0.167271 0.003346 -0.095196
v -0.167325 0.003224 -0.095196
v -0.167325 0.003068 -0.095231
v -0.167271 0.003068 -0.095258
v -0.167202 0.003224 -0.095258
v -0.167202 0.003346 -0.095231
v -0.167271 0.000318 -0.095258
v -0.167325 0.000318 -0.095231
v -0.167325 0.000163 -0.095196
v -0.167271 0.000041 -0.095196
v -0.167202 0.000041 -0.095231
v -0.167202 0.000163 -0.095258
v 0.167097 0.003346 -0.095231
v 0.167097 0.003224 -0.095258
v 0.167166 0.003068 -0.095258
v 0.167220 0.003068 -0.095231
v 0.167220 0.003224 -0.095196
v 0.167166 0.003346 -0.095196
v 0.167220 0.000318 -0.095231
v 0.167166 0.000318 -0.095258
v 0.167097 0.000163 -0.095258
v 0.167097 0.000041 -0.095231
v 0.167166 0.000041 -0.095196
v 0.167220 0.000163 -0.095196
v 0.167214 0.003196 0.095233
v 0.167154 0.003196 0.095263
v 0.167154 0.003332 0.095233
v 0.167154 0.000055 0.095233
v 0.167154 0.000190 0.095263
v 0.167214 0.000190 0.095233
v -0.167259 0.003332 0.095233
v -0.167259 0.003196 0.095263
v -0.167319 0.003196 0.095233
v -0.167319 0.000190 0.095233
v -0.167259 0.000190 0.095263
v -0.167259 0.000055 0.095233
v -0.167259 0.003332 -0.095225
v -0.167319 0.003196 -0.095225
v -0.167259 0.003196 -0.095255
v -0.167259 0.000190 -0.095255
v -0.167202 0.000525 -0.095267
v -0.167271 0.000525 -0.095258
v -0.167325 0.000525 -0.095231
v -0.167343 0.000525 -0.095196
v -0.167343 0.000525 0.095205
v -0.167325 0.000525 0.095239
v -0.167271 0.000525 0.095266
v -0.167202 0.000525 0.095275
v 0.167097 0.000525 0.095275
v 0.167166 0.000525 0.095266
v 0.167220 0.000525 0.095239
v 0.167238 0.000525 0.095205
v 0.167238 0.000525 -0.095196
v 0.167220 0.000525 -0.095231
v 0.167166 0.000525 -0.095258
v 0.167097 0.000525 -0.095267
v -0.167202 0.002834 -0.095267
v -0.167271 0.002834 -0.095258
v -0.167325 0.002834 -0.095231
v -0.167343 0.002834 -0.095196
v -0.167343 0.002834 0.095205
v -0.167325 0.002834 0.095239
v -0.167271 0.002834 0.095266
v -0.167202 0.002834 0.095275
v 0.167097 0.002834 0.095275
v 0.167166 0.002834 0.095266
v 0.167220 0.002834 0.095239
v 0.167238 0.002834 0.095205
v 0.167238 0.002834 -0.095196
v 0.167220 0.002834 -0.095231
v 0.167166 0.002834 -0.095258
v 0.167097 0.002834 -0.095267
v 0.166990 0.002834 -0.095267
v 0.166990 0.003068 -0.095267
v 0.166990 0.003224 -0.095258
v 0.166990 0.003346 -0.095231
v 0.166990 0.003386 -0.095196
v 0.166990 0.003386 0.095205
v 0.166990 0.003346 0.095239
v 0.166990 0.003224 0.095266
v 0.166990 0.003068 0.095275
v 0.166990 0.002834 0.095275
v 0.166990 0.000525 0.095275
v 0.166990 0.000318 0.095275
v 0.166990 0.000163 0.095266
v 0.166990 0.000041 0.095239
v 0.166990 -0.000000 0.095205
v 0.166990 -0.000000 -0.095196
v 0.166990 0.000041 -0.095231
v 0.166990 0.000163 -0.095258
v 0.166990 0.000318 -0.095267
v 0.166990 0.000525 -0.095267
v -0.166990 0.002834 -0.095267
v -0.166990 0.003068 -0.095267
v -0.166990 0.003224 -0.095258
v -0.166990 0.003346 -0.095231
v -0.166990 0.003386 -0.095196
v -0.166990 0.003386 0.095205
v -0.166990 0.003346 0.095239
v -0.166990 0.003224 0.095266
v -0.166990 0.003068 0.095275
v -0.166990 0.002834 0.095275
v -0.166990 0.000525 0.095275
v -0.166990 0.000318 0.095275
v -0.166990 0.000163 0.095266
v -0.166990 0.000041 0.095239
v -0.166990 0.000000 0.095205
v -0.166990 -0.000000 -0.095196
v -0.166990 0.000041 -0.095231
v -0.166990 0.000163 -0.095258
v -0.166990 0.000318 -0.095267
v -0.166990 0.000525 -0.095267
v -0.167202 0.000000 0.095167
v -0.166990 0.000000 0.095167
v 0.166990 -0.000000 0.095167
v 0.167097 -0.000000 0.095167
v 0.167166 0.000041 0.095167
v 0.167220 0.000163 0.095167
v 0.167238 0.000318 0.095167
v 0.167238 0.000525 0.095167
v 0.167238 0.002834 0.095167
v 0.167238 0.003068 0.095167
v 0.167220 0.003224 0.095167
v 0.167166 0.003346 0.095167
v 0.167097 0.003386 0.095167
v 0.166990 0.003386 0.095167
v -0.166990 0.003386 0.095167
v -0.167202 0.003386 0.095167
v -0.167271 0.003346 0.095167
v -0.167325 0.003224 0.095167
v -0.167343 0.003068 0.095167
v -0.167343 0.002834 0.095167
v -0.167343 0.000525 0.095167
v -0.167343 0.000318 0.095167
v -0.167325 0.000163 0.095167
v -0.167271 0.000041 0.095167
v -0.167202 -0.000000 -0.095167
v -0.167271 0.000041 -0.095167
v -0.167325 0.000163 -0.095167
v -0.167343 0.000318 -0.095167
v -0.167343 0.000525 -0.095167
v -0.167343 0.002834 -0.095167
v -0.167343 0.003068 -0.095167
v -0.167325 0.003224 -0.095167
v -0.167271 0.003346 -0.095167
v -0.167202 0.003386 -0.095167
v -0.166990 0.003386 -0.095167
v 0.166990 0.003386 -0.095167
v 0.167097 0.003386 -0.095167
v 0.167166 0.003346 -0.095167
v 0.167220 0.003224 -0.095167
v 0.167238 0.003068 -0.095167
v 0.167238 0.002834 -0.095167
v 0.167238 0.000525 -0.095167
v 0.167238 0.000318 -0.095167
v 0.167220 0.000163 -0.095167
v 0.167166 0.000041 -0.095167
v 0.167097 -0.000000 -0.095167
v 0.166990 -0.000000 -0.095167
v -0.166990 -0.000000 -0.095167
vn -0.0000 -0.0000 1.0000
vn 0.0624 0.0245 0.9978
vn -0.0000 0.0290 0.9996
vn -1.0000 -0.0000 -0.0000
vn -0.9691 0.0475 0.2419
vn -0.9983 0.0578 -0.0000
vn -0.0000 -0.0000 -1.0000
vn -0.0624 0.0245 -0.9978
vn -0.0000 0.0290 -0.9996
vn 1.0000 -0.0000 -0.0000
vn 0.9690 0.0475 -0.2424
vn 0.9983 0.0578 -0.0000
vn -0.0000 -1.0000 -0.0000
vn 0.2114 -0.8814 0.4225
vn -0.0000 -0.9075 0.4200
vn -0.0000 1.0000 -0.0000
vn 0.2114 0.8814 -0.4224
vn -0.0000 0.9076 -0.4199
vn 0.4387 0.1946 0.8773
vn 0.4387 -0.1946 0.8773
vn -0.4385 0.1946 0.8774
vn -0.4385 -0.1946 0.8774
vn -0.4385 0.1946 -0.8774
vn -0.4385 -0.1946 -0.8774
vn 0.4387 0.1946 -0.8773
vn 0.4387 -0.1946 -0.8773
vn 0.8862 -0.0000 0.4634
vn 0.9690 0.0475 0.2424
vn 0.8856 0.0322 0.4632
vn -0.0000 -0.6474 0.7622
vn 0.1512 -0.6830 0.7146
vn -0.8864 -0.0000 0.4630
vn -0.9691 -0.0475 0.2422
vn -0.8860 -0.0325 0.4625
vn -0.0000 0.6474 0.7622
vn -0.2112 0.8816 0.4221
vn -0.1512 0.6829 0.7147
vn -0.5073 -0.8617 -0.0000
vn -0.2111 -0.8815 0.4225
vn -0.4316 -0.8248 0.3653
vn -0.1296 -0.0000 -0.9916
vn -0.0624 -0.0245 -0.9978
vn -0.1295 -0.0181 -0.9914
vn -0.5073 0.8617 -0.0000
vn -0.2111 0.8815 -0.4223
vn -0.4316 0.8248 -0.3653
vn -0.0000 -0.6473 -0.7622
vn -0.2112 -0.8816 -0.4221
vn -0.1512 -0.6828 -0.7148
vn 0.8862 -0.0000 -0.4633
vn 0.9690 -0.0475 -0.2425
vn 0.8855 -0.0323 -0.4635
vn -0.0000 0.6473 -0.7622
vn 0.1512 0.6828 -0.7148
vn 0.5073 -0.8617 -0.0000
vn 0.2111 -0.8815 -0.4224
vn 0.4316 -0.8248 -0.3652
vn 0.5073 0.8617 -0.0000
vn 0.2111 0.8814 0.4226
vn 0.4316 0.8248 0.3653
vn 0.4470 0.0326 0.8939
vn 0.4462 0.0646 0.8926
vn 0.0777 0.2159 0.9733
vn 0.1575 0.2139 0.9641
vn 0.0775 0.2159 0.9733
vn 0.7847 0.3482 0.5128
vn 0.8775 0.3892 0.2803
vn 0.8776 0.3894 0.2794
vn 0.9376 0.1043 0.3317
vn 0.0880 0.0554 0.9946
vn 0.0448 0.0562 0.9974
vn 0.1512 0.6829 0.7147
vn 0.2577 0.8172 0.5155
vn 0.1575 -0.2139 0.9641
vn 0.0777 -0.2159 0.9733
vn 0.0775 -0.2159 0.9733
vn 0.4463 -0.0647 0.8926
vn 0.4469 -0.0326 0.8940
vn 0.8775 -0.3892 0.2801
vn 0.7847 -0.3482 0.5127
vn 0.8776 -0.3895 0.2796
vn 0.4316 -0.8248 0.3653
vn 0.2578 -0.8173 0.5153
vn 0.0624 -0.0245 0.9978
vn 0.0880 -0.0554 0.9946
vn 0.1295 -0.0180 0.9914
vn 0.9690 -0.0475 0.2423
vn 0.9378 -0.1044 0.3311
vn 0.9783 -0.1102 0.1753
vn -0.1575 0.2140 0.9641
vn -0.0777 0.2159 0.9733
vn -0.0776 0.2160 0.9733
vn -0.4461 0.0646 0.8926
vn -0.4468 0.0326 0.8940
vn -0.8775 0.3894 0.2801
vn -0.7848 0.3483 0.5126
vn -0.8776 0.3895 0.2795
vn -0.4316 0.8248 0.3653
vn -0.2578 0.8173 0.5153
vn -0.0624 0.0244 0.9978
vn -0.0880 0.0554 0.9946
vn -0.1296 0.0180 0.9914
vn -0.9374 0.1041 0.3323
vn -0.9783 0.1101 0.1757
vn -0.4462 -0.0646 0.8926
vn -0.4469 -0.0326 0.8940
vn -0.0777 -0.2159 0.9733
vn -0.1575 -0.2139 0.9641
vn -0.0776 -0.2159 0.9733
vn -0.7851 -0.3484 0.5122
vn -0.8774 -0.3893 0.2802
vn -0.8776 -0.3895 0.2794
vn -0.9374 -0.1041 0.3323
vn -0.0624 -0.0244 0.9978
vn -0.0880 -0.0554 0.9946
vn -0.0448 -0.0562 0.9974
vn -0.1511 -0.6829 0.7147
vn -0.2576 -0.8172 0.5156
vn -0.7844 0.3481 -0.5135
vn -0.8774 0.3895 -0.2800
vn -0.8777 0.3893 -0.2795
vn -0.4467 0.0325 -0.8941
vn -0.4461 0.0647 -0.8926
vn -0.4469 0.0322 -0.8940
vn -0.0777 0.2158 -0.9733
vn -0.1575 0.2140 -0.9641
vn -0.0776 0.2160 -0.9733
vn -0.1511 0.6829 -0.7147
vn -0.2579 0.8172 -0.5155
vn -0.9691 0.0475 -0.2419
vn -0.9374 0.1042 -0.3323
vn -0.8861 0.0322 -0.4623
vn -0.0880 0.0552 -0.9946
vn -0.0448 0.0561 -0.9974
vn -0.4469 -0.0326 -0.8940
vn -0.4460 -0.0647 -0.8927
vn -0.8774 -0.3895 -0.2802
vn -0.7850 -0.3483 -0.5123
vn -0.8777 -0.3894 -0.2794
vn -0.1575 -0.2139 -0.9641
vn -0.0777 -0.2158 -0.9733
vn -0.0775 -0.2159 -0.9733
vn -0.0880 -0.0552 -0.9946
vn -0.9692 -0.0475 -0.2418
vn -0.9374 -0.1042 -0.3323
vn -0.9783 -0.1101 -0.1756
vn -0.4316 -0.8247 -0.3655
vn -0.2578 -0.8173 -0.5154
vn 0.1575 0.2140 -0.9641
vn 0.0777 0.2159 -0.9733
vn 0.0775 0.2159 -0.9733
vn 0.4462 0.0647 -0.8926
vn 0.4470 0.0325 -0.8939
vn 0.8775 0.3892 -0.2802
vn 0.7846 0.3482 -0.5130
vn 0.8777 0.3894 -0.2794
vn 0.4316 0.8247 -0.3655
vn 0.2578 0.8171 -0.5156
vn 0.0624 0.0245 -0.9978
vn 0.0879 0.0553 -0.9946
vn 0.1294 0.0183 -0.9914
vn 0.9380 0.1045 -0.3305
vn 0.9783 0.1102 -0.1753
vn 0.4469 -0.0321 -0.8940
vn 0.4463 -0.0646 -0.8926
vn 0.0777 -0.2159 -0.9733
vn 0.1575 -0.2139 -0.9641
vn 0.0775 -0.2159 -0.9733
vn 0.7848 -0.3482 -0.5127
vn 0.8775 -0.3893 -0.2801
vn 0.8777 -0.3893 -0.2795
vn 0.9376 -0.1042 -0.3317
vn 0.0624 -0.0245 -0.9978
vn 0.0880 -0.0552 -0.9946
vn 0.0447 -0.0562 -0.9974
vn 0.1512 -0.6829 -0.7147
vn 0.2579 -0.8172 -0.5155
vn 0.4473 -0.0000 0.8944
vn 0.0641 -0.0000 0.9979
vn 0.1295 -0.0000 0.9916
vn -0.0000 -0.2166 0.9763
vn -0.0000 -0.2165 0.9763
vn -0.0000 -0.0289 0.9996
vn -0.0000 -0.0579 0.9983
vn -0.4470 -0.0000 0.8945
vn -0.0641 -0.0000 0.9979
vn -0.1295 -0.0000 0.9916
vn -0.0000 0.2166 0.9763
vn -0.0000 0.2165 0.9763
vn -0.0000 0.0579 0.9983
vn -0.9140 -0.4057 -0.0000
vn -0.9141 -0.4056 -0.0000
vn -0.9983 -0.0578 -0.0000
vn -0.9934 -0.1151 -0.0000
vn -0.4471 -0.0000 -0.8945
vn -0.9685 -0.0000 -0.2488
vn -0.8863 -0.0000 -0.4631
vn -0.9140 0.4056 -0.0000
vn -0.9140 0.4057 -0.0000
vn -0.9934 0.1151 -0.0000
vn -0.0000 -0.2166 -0.9763
vn -0.0000 -0.2165 -0.9763
vn -0.0000 -0.0289 -0.9996
vn -0.0000 -0.0579 -0.9983
vn 0.4473 -0.0000 -0.8944
vn 0.0641 -0.0000 -0.9979
vn 0.1295 -0.0000 -0.9916
vn -0.0000 0.2166 -0.9763
vn -0.0000 0.0579 -0.9983
vn 0.9141 -0.4055 -0.0000
vn 0.9983 -0.0578 -0.0000
vn 0.9933 -0.1152 -0.0000
vn 0.9141 0.4055 -0.0000
vn 0.9933 0.1152 -0.0000
vn -0.0641 -0.0000 -0.9979
vn -0.8864 -0.0326 -0.4618
vn -0.9686 -0.0000 -0.2488
vn -0.9686 -0.0000 0.2487
vn -0.8866 -0.0000 0.4625
vn -0.4471 -0.0000 0.8945
vn -0.1296 -0.0180 0.9914
vn -0.0000 -0.0290 0.9996
vn 0.1296 -0.0000 0.9916
vn 0.8857 -0.0322 0.4632
vn 0.9685 -0.0000 0.2490
vn 0.9685 -0.0000 -0.2490
vn 0.8863 -0.0000 -0.4631
vn 0.1293 -0.0184 -0.9914
vn -0.0000 -0.0290 -0.9996
vn -0.1294 0.0183 -0.9914
vn -0.9686 -0.0000 0.2485
vn -0.8861 0.0322 0.4623
vn 0.1294 0.0182 0.9914
vn 0.9685 -0.0000 -0.2489
vn 0.8860 0.0327 -0.4626
vn -0.0000 0.0289 -0.9996
vn 0.0447 0.0562 -0.9974
vn -0.0000 0.2165 -0.9763
vn -0.0000 0.9075 0.4200
vn -0.0000 0.0289 0.9996
vn 0.0447 -0.0562 0.9974
vn -0.0000 -0.6473 0.7623
vn -0.0000 -0.9076 -0.4199
vn -0.0000 -0.6474 -0.7622
vn -0.2254 0.9743 -0.0000
vn -0.0000 0.9076 0.4199
vn -0.0448 0.0562 0.9974
vn -0.2254 -0.9743 -0.0000
vn -0.0448 -0.0561 -0.9974
vn 0.2254 -0.9743 -0.0000
vn 0.9783 0.1102 0.1753
vn 0.5074 0.8617 -0.0000
vn 0.2254 0.9743 -0.0000
vn -0.9141 0.4056 -0.0000
vn -0.9783 -0.1101 0.1757
vn -0.9140 -0.4056 -0.0000
vn -0.5074 -0.8617 -0.0000
vn -0.9783 0.1101 -0.1756
vn 0.9783 -0.1102 -0.1753
vn 0.4461 0.0646 0.8926
vn 0.7847 0.3480 0.5129
vn 0.1574 -0.2138 0.9641
vn 0.4463 -0.0646 0.8925
vn 0.7850 -0.3481 0.5124
vn -0.1574 0.2138 0.9641
vn -0.7849 0.3484 0.5123
vn -0.1574 -0.2138 0.9641
vn -0.7850 -0.3484 0.5122
vn -0.7846 0.3484 -0.5129
vn -0.1574 0.2138 -0.9641
vn -0.4459 -0.0647 -0.8927
vn -0.7846 -0.3483 -0.5129
vn -0.1574 -0.2138 -0.9641
vn 0.1575 0.2139 -0.9641
vn 0.4461 0.0647 -0.8926
vn 0.7847 0.3481 -0.5129
vn 0.4463 -0.0646 -0.8925
vn 0.1574 -0.2138 -0.9641
vn 0.7850 -0.3482 -0.5124
vt 0.000001 1.003226
vt -0.000321 1.001979
vt 0.000001 1.001979
vt 1.003981 1.000001
vt 1.002596 1.000189
vt 1.002600 0.999992
vt 0.999999 -0.003181
vt 1.000636 -0.001934
vt 0.999999 -0.001934
vt -0.003670 -0.000002
vt -0.002286 -0.000146
vt -0.002289 0.000007
vt 1.183452 0.013671
vt 1.183228 0.013514
vt 1.183452 0.013514
vt 0.000000 0.000000
vt -0.000322 -0.000154
vt 0.000000 -0.000154
vt -0.000721 1.000339
vt -0.001504 1.000549
vt -0.001530 1.000330
vt -0.034141 1.000325
vt -0.034166 1.000544
vt -0.034950 1.000333
vt 1.001841 1.000329
vt 1.001815 1.000548
vt 1.001032 1.000337
vt 1.035261 1.000338
vt 1.034477 1.000548
vt 1.034452 1.000329
vt 1.001813 -0.000505
vt 1.001839 -0.000286
vt 1.001029 -0.000294
vt 1.035264 -0.000294
vt 1.034453 -0.000287
vt 1.034479 -0.000505
vt -0.001529 -0.000286
vt -0.001503 -0.000504
vt -0.000718 -0.000293
vt -0.034954 -0.000291
vt -0.034169 -0.000502
vt -0.034143 -0.000283
vt -0.003669 1.000388
vt -0.002285 1.000190
vt -0.002279 1.000378
vt 1.183452 0.013290
vt 1.183228 0.013290
vt 1.032475 1.000384
vt 1.033697 1.000189
vt 1.033702 1.000377
vt 1.000000 1.000483
vt 1.000637 1.000199
vt 1.000637 1.000483
vt 1.035351 0.999993
vt 1.035647 1.000216
vt 1.035338 1.000187
vt 1.032477 -0.000544
vt 1.033725 -0.000725
vt 1.033713 -0.000536
vt 1.000942 0.000007
vt 1.000643 -0.000169
vt 1.000951 -0.000143
vt 1.882275 0.810532
vt 1.882720 0.810309
vt 1.882720 0.810532
vt -0.032166 -0.000339
vt -0.033386 -0.000143
vt -0.033393 -0.000331
vt 0.000000 -0.000438
vt -0.000322 -0.000438
vt -0.035040 0.000010
vt -0.035339 -0.000166
vt -0.035031 -0.000140
vt -0.000631 0.999994
vt -0.000335 1.000217
vt -0.000644 1.000188
vt -0.002270 1.000580
vt -0.001310 1.000671
vt -0.000578 1.000450
vt -0.001371 1.000180
vt -0.002258 1.000768
vt -0.034361 1.000666
vt -0.035093 1.000445
vt -0.033391 1.000373
vt -0.033401 1.000573
vt -0.034300 1.000175
vt -0.035028 1.000183
vt -0.033413 1.000761
vt -0.033385 1.000185
vt 1.001620 1.000670
vt 1.000889 1.000449
vt 1.002590 1.000377
vt 1.002580 1.000579
vt 1.001682 1.000178
vt 1.000954 1.000187
vt 1.002568 1.000766
vt 1.033712 1.000578
vt 1.034671 1.000671
vt 1.035404 1.000449
vt 1.034611 1.000179
vt 1.033724 1.000766
vt 1.001680 -0.000136
vt 1.002589 -0.000334
vt 1.002579 -0.000535
vt 1.001618 -0.000628
vt 1.000885 -0.000405
vt 1.002596 -0.000146
vt 1.002567 -0.000723
vt 1.033703 -0.000335
vt 1.034612 -0.000136
vt 1.035342 -0.000144
vt 1.034674 -0.000627
vt 1.035408 -0.000405
vt 1.033697 -0.000147
vt -0.001308 -0.000626
vt -0.000575 -0.000404
vt -0.002280 -0.000333
vt -0.002269 -0.000535
vt -0.001370 -0.000135
vt -0.000640 -0.000143
vt -0.002257 -0.000723
vt -0.033403 -0.000532
vt -0.034364 -0.000624
vt -0.035098 -0.000401
vt -0.034302 -0.000133
vt -0.033415 -0.000720
vt -0.032164 1.000580
vt -0.032164 1.000379
vt -0.032165 1.000767
vt 1.882275 0.012767
vt 1.882720 0.013290
vt 1.882275 0.013290
vt 1.882275 0.012115
vt 1.882720 0.012767
vt 1.003979 1.000587
vt 1.003979 1.000386
vt 1.003978 1.000774
vt 0.000001 1.001149
vt -0.000321 1.000484
vt 0.000001 1.000484
vt -0.000321 1.001149
vt 1.034613 0.000012
vt 1.035351 0.000007
vt 1.033693 0.000006
vt 1.003978 -0.000343
vt 1.003976 -0.000544
vt 1.003979 -0.000156
vt 1.001680 0.999987
vt 1.000942 0.999993
vt 1.183453 0.811055
vt 1.183228 0.810533
vt 1.183453 0.810533
vt 1.183453 0.811707
vt 1.183228 0.811055
vt -0.003667 -0.000544
vt -0.003668 -0.000342
vt -0.003666 -0.000731
vt 0.999999 -0.001104
vt 1.000636 -0.000439
vt 0.999999 -0.000439
vt 1.000636 -0.001104
vt -0.034302 0.999983
vt -0.035039 0.999989
vt -0.033382 0.999988
vt -0.001369 0.000013
vt -0.000632 0.000008
vt 1.032479 -0.000731
vt 1.032476 -0.000342
vt 1.032475 -0.000155
vt 1.033693 0.999992
vt 1.032475 1.000197
vt 1.032474 1.000000
vt 1.032476 1.000585
vt 1.032477 1.000773
vt 1.183452 0.012116
vt 1.183228 0.011252
vt 1.183452 0.011252
vt -0.003668 1.000590
vt -0.032163 1.000193
vt -0.033383 0.000009
vt -0.032165 -0.000151
vt -0.032164 0.000001
vt -0.032168 -0.000540
vt -0.032169 -0.000727
vt 1.882275 0.811707
vt 1.882720 0.812571
vt 1.882275 0.812571
vt 1.003975 -0.000731
vt 1.003980 1.000198
vt 0.000005 1.028940
vt -0.000322 1.003224
vt -0.003668 1.000778
vt -0.003669 1.000200
vt -0.003669 -0.000155
vt 0.999999 -0.028894
vt 1.000636 -0.003181
vt -0.000322 -0.001934
vt 0.000000 -0.003180
vt 0.000000 -0.001934
vt -0.000322 -0.001103
vt 0.000000 -0.001103
vt 1.000000 0.999999
vt 0.000001 1.000200
vt 0.000001 1.000000
vt 1.000000 1.001148
vt 1.000000 1.001978
vt 1.000000 1.003224
vt 1.882275 0.011251
vt 1.183228 0.012768
vt 1.183452 0.012768
vt 1.882275 0.810188
vt 1.183453 0.810310
vt 1.183453 0.810188
vt 1.882275 0.811055
vt 1.183228 0.812572
vt 1.183453 0.812572
vt -0.000322 -0.003180
vt 0.000000 -0.028893
vt 0.999999 -0.000154
vt 1.000637 0.999999
vt 1.000000 1.000199
vt 1.000637 1.001148
vt 1.000637 1.001978
vt 1.000637 1.003223
vt 1.000000 1.028939
vt 1.882720 0.011251
vt 1.882275 0.013513
vt 1.882720 0.810188
vt 1.882275 0.810309
vt 1.882720 0.811055
vt 1.882720 0.013670
vt 1.882275 0.013670
vt 1.183228 0.013671
vt -0.035354 0.999995
vt -0.034303 0.000015
vt -0.032162 0.999996
vt -0.003669 1.000002
vt -0.002289 0.999993
vt -0.001369 0.999988
vt -0.000317 1.000000
vt -0.000321 1.000000
vt 0.999999 0.000000
vt 1.000628 0.999999
vt 1.001679 0.000012
vt 1.002599 0.000006
vt 1.003980 -0.000003
vt 1.032474 -0.000002
vt 1.034613 0.999987
vt 1.035665 0.999999
vt 1.035665 -0.000000
vt 1.000627 0.000000
vt 1.000636 0.000000
vt -0.000317 0.000000
vt -0.035355 0.000003
vt 1.183228 0.810188
vt -0.000322 0.000000
vt -0.035331 1.000213
vt 1.000651 1.000217
vt 1.035646 -0.000170
vt -0.000337 -0.000170
vt 1.882720 0.012115
vt 1.183228 0.811707
vt 1.183228 0.012116
vt 1.882720 0.811707
vt -0.000316 1.028941
vt 1.000636 -0.028894
vt -0.000321 1.000200
vt 1.183228 0.810310
vt -0.000322 -0.028893
vt 1.000636 -0.000154
vt 1.000636 1.028940
vt 1.882720 0.013513
s 1
g off
g painting_Material.006
usemtl Material.006
f 138/1/1 10/2/2 137/3/3
s 2
f 188/4/4 15/5/5 187/6/6
s 3
f 149/7/7 21/8/8 150/9/9
s 4
f 209/10/10 27/11/11 208/12/12
s 5
f 171/13/13 14/14/14 143/15/15
s 6
f 204/16/16 29/17/17 133/18/18
s 7
f 83/19/19 82/20/19 81/21/19
s 8
f 86/22/20 85/23/20 84/24/20
s 9
f 89/25/21 88/26/21 87/27/21
s 10
f 92/28/22 91/29/22 90/30/22
s 11
f 95/31/23 94/32/23 93/33/23
s 12
f 7/34/24 8/35/24 96/36/24
s 13
f 4/37/25 5/38/25 6/39/25
s 14
f 1/40/26 2/41/26 3/42/26
s 4
f 123/43/27 11/44/28 33/45/29
s 5
f 142/46/30 14/14/14 39/47/31
s 2
f 102/48/32 20/49/33 51/50/34
s 6
f 155/51/35 17/52/36 45/53/37
s 5
f 192/54/38 18/55/39 55/56/40
s 3
f 98/57/41 26/58/42 63/59/43
s 6
f 201/60/44 23/61/45 57/62/46
s 5
f 165/63/47 24/64/48 67/65/49
s 4
f 110/66/50 32/67/51 75/68/52
s 6
f 132/69/53 29/17/17 69/70/54
s 5
f 213/71/55 30/72/56 79/73/57
s 6
f 180/74/58 9/75/59 37/76/60
s 15
f 33/45/61 82/20/62 34/77/61
s 16
f 35/78/63 83/19/64 36/79/65
s 17
f 83/19/66 38/80/67 37/76/68
s 4
f 11/44/28 81/21/69 33/45/29
s 1
f 10/81/2 82/20/70 35/78/71
s 6
f 37/76/60 36/79/72 83/19/73
s 18
f 84/24/74 40/82/75 39/83/76
s 15
f 85/23/77 42/84/78 41/85/78
s 19
f 43/86/79 84/24/80 44/87/81
s 5
f 39/83/31 44/87/82 84/24/83
s 1
f 13/88/84 85/23/85 41/85/86
s 4
f 12/89/87 86/22/88 43/86/89
s 16
f 87/27/90 46/90/91 45/91/92
s 20
f 88/26/93 48/92/94 47/93/94
s 21
f 49/94/95 87/27/96 50/95/97
s 6
f 45/91/37 50/95/98 87/27/99
s 1
f 16/96/100 88/26/101 47/93/102
s 2
f 15/5/5 89/25/103 49/94/104
s 20
f 90/30/105 52/97/106 51/50/106
s 18
f 53/98/107 92/28/108 54/99/109
s 22
f 92/28/110 56/100/111 55/56/112
s 2
f 20/49/33 90/30/113 51/50/34
s 1
f 19/101/114 91/29/115 53/98/116
s 5
f 55/56/40 54/99/117 92/28/118
s 21
f 93/33/119 58/102/120 57/62/121
s 23
f 59/103/122 95/31/123 60/104/124
s 24
f 61/105/125 93/33/126 62/106/127
s 6
f 57/62/46 62/106/128 93/33/129
s 2
f 22/107/130 94/32/131 59/103/132
s 3
f 21/108/8 95/31/133 61/105/134
s 23
f 63/59/135 8/35/136 64/109/135
s 22
f 65/110/137 7/34/138 66/111/139
s 25
f 7/34/140 68/112/141 67/113/142
s 3
f 26/58/42 96/36/143 63/59/43
s 2
f 25/114/144 8/35/145 65/110/146
s 5
f 67/113/49 66/111/147 7/34/148
s 24
f 6/39/149 70/115/150 69/116/151
s 26
f 5/38/152 72/117/153 71/118/153
s 17
f 73/119/154 6/39/155 74/120/156
s 6
f 69/116/54 74/120/157 6/39/158
s 3
f 28/121/159 5/38/160 71/118/161
s 4
f 27/11/11 4/37/162 73/119/163
s 26
f 75/68/164 2/41/165 76/122/164
s 25
f 77/123/166 1/40/167 78/124/168
s 19
f 1/40/169 80/125/170 79/73/171
s 4
f 32/67/51 3/42/172 75/68/52
s 3
f 31/126/173 2/41/174 77/123/175
s 5
f 79/73/57 78/124/176 1/40/177
s 15
f 106/127/178 42/84/78 107/128/178
s 1
f 105/129/179 41/85/86 106/127/180
s 18
f 161/130/181 54/131/109 162/132/182
s 1
f 160/133/183 53/134/116 161/130/184
s 20
f 119/135/185 48/92/94 118/136/185
s 1
f 120/137/186 47/93/102 119/135/187
s 16
f 136/138/188 36/139/65 135/140/189
s 1
f 137/3/3 35/141/71 136/138/190
s 22
f 195/142/191 66/111/139 194/143/192
s 2
f 196/144/193 65/110/146 195/142/194
s 23
f 115/145/195 60/104/124 114/146/195
s 2
f 116/147/196 59/103/132 115/145/197
s 21
f 186/148/198 50/95/97 185/149/199
s 2
f 187/6/6 49/94/104 186/148/200
s 25
f 146/150/201 78/151/168 145/152/202
s 3
f 147/153/203 77/154/175 146/150/204
s 26
f 127/155/205 72/117/153 126/156/205
s 3
f 128/157/206 71/118/161 127/155/207
s 24
f 151/158/208 62/159/127 152/160/208
s 3
f 150/9/9 61/161/134 151/158/209
s 19
f 174/162/210 44/87/81 173/163/210
s 4
f 175/164/211 43/86/89 174/162/212
s 17
f 207/165/213 74/120/156 206/166/213
s 4
f 208/12/12 73/119/163 207/165/214
s 3
f 114/146/41 97/167/215 98/57/41
s 23
f 63/59/135 99/168/195 98/57/195
s 2
f 64/109/216 100/169/217 99/168/197
f 190/170/193 101/171/218 189/172/4
f 118/136/219 101/171/218 102/48/32
s 20
f 51/50/106 103/173/220 102/48/220
s 1
f 52/97/221 104/174/186 103/173/187
f 140/175/222 105/176/179 139/177/1
f 122/178/223 105/129/179 106/127/180
s 15
f 123/43/178 106/127/178 107/128/178
s 4
f 42/84/224 108/179/225 107/128/27
f 211/180/211 109/181/226 210/182/10
f 126/156/227 109/181/226 110/66/50
s 26
f 75/68/164 111/183/205 110/66/205
s 3
f 76/122/228 112/184/206 111/183/207
f 167/185/229 97/186/215 168/187/7
f 60/104/230 113/188/215 114/146/41
s 23
f 98/57/195 115/145/195 114/146/195
s 2
f 99/168/197 116/147/196 115/145/197
f 189/172/4 117/189/231 188/4/4
f 48/92/232 117/189/231 118/136/219
s 20
f 102/48/220 119/135/185 118/136/185
s 1
f 103/173/187 120/137/186 119/135/187
f 139/190/1 121/191/179 138/1/1
f 34/77/233 121/192/179 122/178/223
s 15
f 33/45/61 122/178/178 123/43/178
s 4
f 107/128/27 124/193/225 123/43/27
f 210/182/10 125/194/234 209/10/10
f 72/117/235 125/194/234 126/156/227
s 26
f 110/66/205 127/155/205 126/156/205
s 3
f 111/183/207 128/157/206 127/155/207
f 168/195/7 113/196/215 149/7/7
f 28/197/159 129/198/7 130/199/236
f 70/200/237 130/199/236 131/201/209
s 24
f 69/70/151 131/201/208 132/69/238
s 6
f 152/160/53 133/18/18 132/69/53
f 183/202/16 134/203/239 182/204/16
f 36/139/72 134/203/239 135/140/35
s 16
f 155/51/189 136/138/188 135/140/189
s 1
f 156/205/190 137/3/3 136/138/190
f 157/206/240 138/1/1 137/3/3
f 158/207/1 139/190/1 138/1/1
f 159/208/1 140/175/222 139/177/1
f 40/209/241 140/175/222 141/210/184
s 18
f 39/47/76 141/210/181 142/46/182
s 5
f 162/132/242 143/15/15 142/46/30
f 216/211/13 144/212/243 215/213/13
f 78/151/176 144/212/243 145/152/244
s 25
f 165/63/201 146/150/201 145/152/202
s 3
f 166/214/204 147/153/203 146/150/204
f 112/215/206 147/153/203 148/216/7
f 128/217/206 148/218/7 129/198/7
f 130/199/236 149/7/7 150/9/9
f 131/201/209 150/9/9 151/158/209
s 24
f 132/69/238 151/158/208 152/160/208
s 6
f 62/159/128 153/219/18 152/160/53
f 184/220/245 154/221/246 183/202/16
f 135/140/35 154/221/246 155/51/35
s 16
f 45/53/92 156/205/188 155/51/189
s 1
f 46/222/247 157/206/240 156/205/190
f 16/223/100 158/207/1 157/206/240
f 120/224/186 159/225/1 158/207/1
f 104/226/186 160/133/183 159/208/1
f 141/210/184 160/133/183 161/130/184
s 18
f 142/46/182 161/130/181 162/132/182
s 5
f 54/131/117 163/227/15 162/132/242
f 193/228/248 164/229/243 216/211/13
f 145/152/244 164/229/243 165/63/47
s 25
f 67/65/142 166/214/201 165/63/201
s 3
f 68/230/249 167/185/229 166/214/204
f 148/216/7 167/185/229 168/187/7
f 129/198/7 168/195/7 149/7/7
s 5
f 163/227/15 169/231/248 170/232/13
f 143/15/15 170/232/13 171/13/13
f 215/213/13 172/233/250 171/13/13
f 44/87/82 172/234/250 173/163/55
s 19
f 213/71/210 174/162/210 173/163/210
s 4
f 212/235/212 175/164/211 174/162/212
f 108/179/225 175/164/211 176/236/10
f 124/193/225 176/236/10 177/237/10
f 11/44/28 177/237/10 178/238/12
f 38/80/251 178/238/12 179/239/214
s 17
f 37/76/68 179/239/213 180/74/213
s 6
f 206/166/252 181/240/253 180/74/58
f 134/203/239 181/241/253 182/204/16
f 204/16/16 183/202/16 182/204/16
f 203/242/16 184/243/245 183/202/16
f 50/95/98 184/243/245 185/149/44
s 21
f 201/60/254 186/148/198 185/149/199
s 2
f 200/244/200 187/6/6 186/148/200
f 199/245/6 188/4/4 187/6/6
f 198/246/4 189/172/4 188/4/4
f 197/247/4 190/170/193 189/172/4
f 56/100/255 190/170/193 191/248/194
s 22
f 55/56/112 191/248/256 192/54/191
s 5
f 194/143/257 169/249/248 192/54/38
f 66/111/147 193/250/248 194/143/257
s 22
f 192/54/191 195/142/191 194/143/192
s 2
f 191/248/194 196/144/193 195/142/194
f 100/169/217 196/144/193 197/247/4
f 116/147/196 197/247/4 198/246/4
f 22/107/130 198/246/4 199/245/6
f 58/102/258 199/245/6 200/244/200
s 21
f 57/62/121 200/244/199 201/60/254
s 6
f 185/149/44 202/251/245 201/60/44
f 153/219/18 202/252/245 203/242/16
f 133/18/18 203/242/16 204/16/16
f 182/204/16 205/253/253 204/16/16
f 74/120/157 205/253/253 206/166/252
s 17
f 180/74/213 207/165/213 206/166/213
s 4
f 179/239/214 208/12/12 207/165/214
f 178/238/12 209/10/10 208/12/12
f 177/237/10 210/182/10 209/10/10
f 176/236/10 211/180/211 210/182/10
f 80/125/259 211/180/211 212/235/212
s 19
f 79/73/171 212/235/210 213/71/210
s 5
f 173/163/55 214/254/250 213/71/55
f 144/212/243 214/255/250 215/213/13
f 171/13/13 216/211/13 215/213/13
f 170/232/13 193/228/248 216/211/13
s 6
f 204/16/16 203/242/16 183/202/16
s 1
f 138/1/1 121/191/179 10/2/2
s 2
f 188/4/4 117/189/231 15/5/5
s 3
f 149/7/7 113/196/215 21/8/8
s 4
f 209/10/10 125/194/234 27/11/11
s 5
f 171/13/13 172/233/250 14/14/14
s 6
f 204/16/16 205/256/253 29/17/17
s 4
f 123/43/27 124/193/225 11/44/28
s 5
f 142/46/30 143/15/15 14/14/14
s 2
f 102/48/32 101/171/218 20/49/33
s 6
f 155/51/35 154/221/246 17/52/36
s 5
f 192/54/38 169/249/248 18/55/39
s 3
f 98/57/41 97/167/215 26/58/42
s 6
f 201/60/44 202/251/245 23/61/45
s 5
f 165/63/47 164/229/243 24/64/48
s 4
f 110/66/50 109/181/226 32/67/51
s 6
f 132/69/53 133/18/18 29/17/17
s 5
f 213/71/55 214/254/250 30/72/56
s 6
f 180/74/58 181/240/253 9/75/59
s 15
f 33/45/61 81/21/260 82/20/62
s 16
f 35/78/63 82/20/64 83/19/64
s 17
f 83/19/66 81/21/261 38/80/67
s 4
f 11/44/28 38/80/251 81/21/69
s 1
f 10/81/2 34/77/233 82/20/70
s 6
f 37/76/60 9/75/59 36/79/72
s 18
f 84/24/74 85/23/262 40/82/75
s 15
f 85/23/77 86/22/263 42/84/78
s 19
f 43/86/79 86/22/264 84/24/80
s 5
f 39/83/31 14/257/14 44/87/82
s 1
f 13/88/84 40/82/241 85/23/85
s 4
f 12/89/87 42/84/224 86/22/88
s 16
f 87/27/90 88/26/265 46/90/91
s 20
f 88/26/93 89/25/93 48/92/94
s 21
f 49/94/95 89/25/266 87/27/96
s 6
f 45/91/37 17/258/36 50/95/98
s 1
f 16/96/100 46/90/247 88/26/101
s 2
f 15/5/5 48/92/232 89/25/103
s 20
f 90/30/105 91/29/105 52/97/106
s 18
f 53/98/107 91/29/267 92/28/108
s 22
f 92/28/110 90/30/268 56/100/111
s 2
f 20/49/33 56/100/255 90/30/113
s 1
f 19/101/114 52/97/221 91/29/115
s 5
f 55/56/40 18/55/39 54/99/117
s 21
f 93/33/119 94/32/269 58/102/120
s 23
f 59/103/122 94/32/123 95/31/123
s 24
f 61/105/125 95/31/270 93/33/126
s 6
f 57/62/46 23/61/45 62/106/128
s 2
f 22/107/130 58/102/258 94/32/131
s 3
f 21/108/8 60/104/230 95/31/133
s 23
f 63/59/135 96/36/271 8/35/136
s 22
f 65/110/137 8/35/272 7/34/138
s 25
f 7/34/140 96/36/273 68/112/141
s 3
f 26/58/42 68/112/249 96/36/143
s 2
f 25/114/144 64/109/216 8/35/145
s 5
f 67/113/49 24/259/48 66/111/147
s 24
f 6/39/149 5/38/274 70/115/150
s 26
f 5/38/152 4/37/275 72/117/153
s 17
f 73/119/154 4/37/276 6/39/155
s 6
f 69/116/54 29/260/17 74/120/157
s 3
f 28/121/159 70/115/237 5/38/160
s 4
f 27/11/11 72/117/235 4/37/162
s 26
f 75/68/164 3/42/277 2/41/165
s 25
f 77/123/166 2/41/278 1/40/167
s 19
f 1/40/169 3/42/279 80/125/170
s 4
f 32/67/51 80/125/259 3/42/172
s 3
f 31/126/173 76/122/228 2/41/174
s 5
f 79/73/57 30/72/56 78/124/176
s 15
f 106/127/178 41/85/78 42/84/78
s 1
f 105/129/179 13/88/84 41/85/86
s 18
f 161/130/181 53/134/107 54/131/109
s 1
f 160/133/183 19/261/114 53/134/116
s 20
f 119/135/185 47/93/94 48/92/94
s 1
f 120/137/186 16/96/100 47/93/102
s 16
f 136/138/188 35/141/63 36/139/65
s 1
f 137/3/3 10/2/2 35/141/71
s 22
f 195/142/191 65/110/137 66/111/139
s 2
f 196/144/193 25/114/144 65/110/146
s 23
f 115/145/195 59/103/122 60/104/124
s 2
f 116/147/196 22/107/130 59/103/132
s 21
f 186/148/198 49/94/95 50/95/97
s 2
f 187/6/6 15/5/5 49/94/104
s 25
f 146/150/201 77/154/166 78/151/168
s 3
f 147/153/203 31/262/173 77/154/175
s 26
f 127/155/205 71/118/153 72/117/153
s 3
f 128/157/206 28/121/159 71/118/161
s 24
f 151/158/208 61/161/125 62/159/127
s 3
f 150/9/9 21/8/8 61/161/134
s 19
f 174/162/210 43/86/79 44/87/81
s 4
f 175/164/211 12/89/87 43/86/89
s 17
f 207/165/213 73/119/154 74/120/156
s 4
f 208/12/12 27/11/11 73/119/163
s 3
f 114/146/41 113/188/215 97/167/215
s 23
f 63/59/135 64/109/135 99/168/195
s 2
f 64/109/216 25/114/144 100/169/217
f 190/170/193 20/49/33 101/171/218
f 118/136/219 117/189/231 101/171/218
s 20
f 51/50/106 52/97/106 103/173/220
s 1
f 52/97/221 19/101/114 104/174/186
f 140/175/222 13/263/84 105/176/179
f 122/178/223 121/192/179 105/129/179
s 15
f 123/43/178 122/178/178 106/127/178
s 4
f 42/84/224 12/89/87 108/179/225
f 211/180/211 32/67/51 109/181/226
f 126/156/227 125/194/234 109/181/226
s 26
f 75/68/164 76/122/164 111/183/205
s 3
f 76/122/228 31/126/173 112/184/206
f 167/185/229 26/264/42 97/186/215
f 60/104/230 21/108/8 113/188/215
s 23
f 98/57/195 99/168/195 115/145/195
s 2
f 99/168/197 100/169/217 116/147/196
f 189/172/4 101/171/218 117/189/231
f 48/92/232 15/5/5 117/189/231
s 20
f 102/48/220 103/173/220 119/135/185
s 1
f 103/173/187 104/174/186 120/137/186
f 139/190/1 105/265/179 121/191/179
f 34/77/233 10/81/2 121/192/179
s 15
f 33/45/61 34/77/61 122/178/178
s 4
f 107/128/27 108/179/225 124/193/225
f 210/182/10 109/181/226 125/194/234
f 72/117/235 27/11/11 125/194/234
s 26
f 110/66/205 111/183/205 127/155/205
s 3
f 111/183/207 112/184/206 128/157/206
f 168/195/7 97/266/215 113/196/215
f 28/197/159 128/217/206 129/198/7
f 70/200/237 28/197/159 130/199/236
s 24
f 69/70/151 70/200/150 131/201/208
s 6
f 152/160/53 153/219/18 133/18/18
f 183/202/16 154/221/246 134/203/239
f 36/139/72 9/267/59 134/203/239
s 16
f 155/51/189 156/205/188 136/138/188
s 1
f 156/205/190 157/206/240 137/3/3
f 157/206/240 158/207/1 138/1/1
f 158/207/1 159/225/1 139/190/1
f 159/208/1 160/133/183 140/175/222
f 40/209/241 13/263/84 140/175/222
s 18
f 39/47/76 40/209/75 141/210/181
s 5
f 162/132/242 163/227/15 143/15/15
f 216/211/13 164/229/243 144/212/243
f 78/151/176 30/268/56 144/212/243
s 25
f 165/63/201 166/214/201 146/150/201
s 3
f 166/214/204 167/185/229 147/153/203
f 112/215/206 31/262/173 147/153/203
f 128/217/206 112/269/206 148/218/7
f 130/199/236 129/198/7 149/7/7
f 131/201/209 130/199/236 150/9/9
s 24
f 132/69/238 131/201/208 151/158/208
s 6
f 62/159/128 23/270/45 153/219/18
f 184/220/245 17/52/36 154/221/246
f 135/140/35 134/203/239 154/221/246
s 16
f 45/53/92 46/222/91 156/205/188
s 1
f 46/222/247 16/223/100 157/206/240
f 16/223/100 120/224/186 158/207/1
f 120/224/186 104/271/186 159/225/1
f 104/226/186 19/261/114 160/133/183
f 141/210/184 140/175/222 160/133/183
s 18
f 142/46/182 141/210/181 161/130/181
s 5
f 54/131/117 18/272/39 163/227/15
f 193/228/248 24/64/48 164/229/243
f 145/152/244 144/212/243 164/229/243
s 25
f 67/65/142 68/230/141 166/214/201
s 3
f 68/230/249 26/264/42 167/185/229
f 148/216/7 147/153/203 167/185/229
f 129/198/7 148/218/7 168/195/7
s 5
f 163/227/15 18/272/39 169/231/248
f 143/15/15 163/227/15 170/232/13
f 215/213/13 214/255/250 172/233/250
f 44/87/82 14/257/14 172/234/250
s 19
f 213/71/210 212/235/210 174/162/210
s 4
f 212/235/212 211/180/211 175/164/211
f 108/179/225 12/89/87 175/164/211
f 124/193/225 108/179/225 176/236/10
f 11/44/28 124/193/225 177/237/10
f 38/80/251 11/44/28 178/238/12
s 17
f 37/76/68 38/80/67 179/239/213
s 6
f 206/166/252 205/253/253 181/240/253
f 134/203/239 9/267/59 181/241/253
f 203/242/16 202/251/245 184/243/245
f 50/95/98 17/258/36 184/243/245
s 21
f 201/60/254 200/244/199 186/148/198
s 2
f 200/244/200 199/245/6 187/6/6
f 199/245/6 198/246/4 188/4/4
f 198/246/4 197/247/4 189/172/4
f 197/247/4 196/144/193 190/170/193
f 56/100/255 20/49/33 190/170/193
s 22
f 55/56/112 56/100/111 191/248/256
s 5
f 194/143/257 193/250/248 169/249/248
f 66/111/147 24/259/48 193/250/248
s 22
f 192/54/191 191/248/256 195/142/191
s 2
f 191/248/194 190/170/193 196/144/193
f 100/169/217 25/114/144 196/144/193
f 116/147/196 100/169/217 197/247/4
f 22/107/130 116/147/196 198/246/4
f 58/102/258 22/107/130 199/245/6
s 21
f 57/62/121 58/102/120 200/244/199
s 6
f 185/149/44 184/243/245 202/251/245
f 153/219/18 23/270/45 202/252/245
f 133/18/18 153/219/18 203/242/16
f 182/204/16 181/240/253 205/253/253
f 74/120/157 29/260/17 205/253/253
s 17
f 180/74/213 179/239/213 207/165/213
s 4
f 179/239/214 178/238/12 208/12/12
f 178/238/12 177/237/10 209/10/10
f 177/237/10 176/236/10 210/182/10
f 176/236/10 175/164/211 211/180/211
f 80/125/259 32/67/51 211/180/211
s 19
f 79/73/171 80/125/170 212/235/210
s 5
f 173/163/55 172/234/250 214/254/250
f 144/212/243 30/268/56 214/255/250
f 171/13/13 170/232/13 216/211/13
f 170/232/13 169/231/248 193/228/248
