# Blender 5.1.0
# www.blender.org
mtllib modelo_carteles_informativos.mtl
o modelo_carteles_informativos
v -0.053355 -1.053035 -2.310362
v -0.053355 -1.053035 2.458117
v -0.053355 0.886807 2.458117
v -0.053355 0.886807 -2.310362
v 0.046643 -1.053035 -2.310362
v 0.046643 -1.053035 2.458117
v 0.046643 0.886807 2.458117
v 0.046643 0.886807 -2.310362
vn 1.0000 -0.0000 -0.0000
vn -1.0000 -0.0000 -0.0000
vn -0.0000 -0.0000 1.0000
vn -0.0000 -0.0000 -1.0000
vn -0.0000 1.0000 -0.0000
vn -0.0000 -1.0000 -0.0000
vt 0.174483 0.911298
vt 0.826871 0.084173
vt 0.174483 0.084173
vt 0.826871 0.911298
vt -0.460037 -5.769143
vt -0.648414 -5.733337
vt -0.648414 -5.769143
vt -0.460037 -5.733337
vt 0.174483 -5.733337
vt 0.826871 -5.769143
vt 0.174483 -5.769143
vt 0.826871 -5.733337
s 1
usemtl pizarra
f 4/1/1 2/2/1 1/3/1
f 7/4/2 5/3/2 6/2/2
f 8/5/3 1/6/3 5/7/3
f 3/8/4 6/7/4 2/6/4
f 1/9/5 6/10/5 5/11/5
f 8/11/6 3/12/6 4/9/6
f 4/1/1 3/4/1 2/2/1
f 7/4/2 8/1/2 5/3/2
f 8/5/3 4/8/3 1/6/3
f 3/8/4 7/5/4 6/7/4
f 1/9/5 2/12/5 6/10/5
f 8/11/6 7/10/6 3/12/6
